<svg width="187" height="60" viewBox="0 0 187 60" fill="none" xmlns="http://www.w3.org/2000/svg">
<path d="M186.5 50.8437H186.464V51.3437C186.464 55.4727 183.009 58.8791 178.686 58.8791H8.27846C3.95469 58.8791 0.5 55.4727 0.5 51.3437V8.03549C0.5 3.873 3.95326 0.5 8.27846 0.5H178.722C183.012 0.5 186.5 3.87439 186.5 8.03549V50.8437Z" stroke="#242424"/>
<path d="M44.3125 39.8945C43.3296 41.9969 42.8732 42.9619 41.6446 44.823C39.8893 47.4423 37.432 50.682 34.4129 50.682C31.7098 50.7165 31.0077 48.9588 27.3568 48.9588C23.7059 48.9932 22.9336 50.682 20.2305 50.682C17.1764 50.6476 14.8243 47.7525 13.1042 45.1332C8.2246 37.8611 7.73313 29.3138 10.7171 24.7644C12.8585 21.5247 16.2285 19.6636 19.388 19.6636C22.6177 19.6636 24.6537 21.3868 27.3217 21.3868C29.9195 21.3868 31.4992 19.6636 35.2203 19.6636C38.0287 19.6636 41.0127 21.18 43.1541 23.7649C36.1682 27.5216 37.2915 37.2752 44.3125 39.8945Z" fill="#333033"/>
<path d="M32.4071 16.4928C33.8242 14.7708 34.8779 12.3944 34.4782 9.91479C32.1891 10.0526 29.5003 11.4301 27.9379 13.2554C26.5208 14.8741 25.3581 17.3193 25.7941 19.6612C28.3012 19.7301 30.881 18.3181 32.4071 16.4928Z" fill="#333033"/>
<path d="M63 44.4645V43.2658H64.236V36.5687H63V35.37H66.9551V36.5687H65.7062V43.2658H66.9551V44.4645H63ZM64.9776 34.458C64.648 34.458 64.4138 34.3842 64.275 34.2365C64.1362 34.0888 64.0668 33.9021 64.0668 33.6762V33.4026C64.0668 33.1768 64.1362 32.99 64.275 32.8423C64.4138 32.6947 64.648 32.6208 64.9776 32.6208C65.3072 32.6208 65.5414 32.6947 65.6801 32.8423C65.8189 32.99 65.8883 33.1768 65.8883 33.4026V33.6762C65.8883 33.9021 65.8189 34.0888 65.6801 34.2365C65.5414 34.3842 65.3072 34.458 64.9776 34.458Z" fill="#333033"/>
<path d="M68.6987 44.4645V37.6893H70.1169V38.8098H70.1819C70.3294 38.445 70.5505 38.1409 70.8454 37.8977C71.149 37.6545 71.561 37.5329 72.0814 37.5329C72.7753 37.5329 73.3131 37.7631 73.6947 38.2235C74.085 38.6751 74.2802 39.3223 74.2802 40.1648V44.4645H72.862V40.3472C72.862 39.2875 72.437 38.7577 71.587 38.7577C71.4049 38.7577 71.2227 38.7837 71.0406 38.8358C70.8671 38.8793 70.711 38.9488 70.5722 39.0443C70.4334 39.1399 70.3207 39.2615 70.234 39.4091C70.1559 39.5568 70.1169 39.7305 70.1169 39.9303V44.4645H68.6987Z" fill="#333033"/>
<path d="M80.5001 43.344H80.4351C80.2876 43.7435 80.0448 44.0562 79.7065 44.2821C79.3769 44.5079 78.9866 44.6208 78.5356 44.6208C77.6769 44.6208 77.0134 44.3125 76.545 43.6958C76.0766 43.0704 75.8424 42.1974 75.8424 41.0769C75.8424 39.9564 76.0766 39.0877 76.545 38.471C77.0134 37.8456 77.6769 37.5329 78.5356 37.5329C78.9866 37.5329 79.3769 37.6458 79.7065 37.8717C80.0448 38.0888 80.2876 38.4015 80.4351 38.8098H80.5001V34.8228H81.9183V44.4645H80.5001V43.344ZM78.9649 43.3961C79.3986 43.3961 79.7629 43.2919 80.0578 43.0834C80.3527 42.8662 80.5001 42.5839 80.5001 42.2365V39.9173C80.5001 39.5698 80.3527 39.2919 80.0578 39.0834C79.7629 38.8662 79.3986 38.7577 78.9649 38.7577C78.4705 38.7577 78.0759 38.9184 77.781 39.2397C77.4861 39.5524 77.3386 39.9694 77.3386 40.4906V41.6632C77.3386 42.1844 77.4861 42.6056 77.781 42.927C78.0759 43.2397 78.4705 43.3961 78.9649 43.3961Z" fill="#333033"/>
<path d="M84.6608 36.4775C84.3659 36.4775 84.1491 36.408 84.0103 36.2691C83.8802 36.1301 83.8151 35.952 83.8151 35.7349V35.5134C83.8151 35.2962 83.8802 35.1181 84.0103 34.9792C84.1491 34.8402 84.3659 34.7707 84.6608 34.7707C84.9557 34.7707 85.1682 34.8402 85.2983 34.9792C85.4284 35.1181 85.4935 35.2962 85.4935 35.5134V35.7349C85.4935 35.952 85.4284 36.1301 85.2983 36.2691C85.1682 36.408 84.9557 36.4775 84.6608 36.4775ZM83.9452 37.6893H85.3634V44.4645H83.9452V37.6893Z" fill="#333033"/>
<path d="M87.3884 44.4645V37.6893H88.8065V38.9922H88.8716C88.967 38.6447 89.1665 38.3407 89.4701 38.0801C89.7736 37.8195 90.1943 37.6893 90.7321 37.6893H91.1094V39.0573H90.5499C89.9861 39.0573 89.5524 39.1485 89.2489 39.3309C88.954 39.5134 88.8065 39.7826 88.8065 40.1388V44.4645H87.3884Z" fill="#333033"/>
<path d="M94.9595 44.6208C94.4738 44.6208 94.0401 44.5383 93.6585 44.3733C93.2768 44.2083 92.9516 43.9737 92.6827 43.6697C92.4138 43.357 92.2056 42.9835 92.0582 42.5492C91.9194 42.1062 91.85 41.6154 91.85 41.0769C91.85 40.5383 91.9194 40.0519 92.0582 39.6176C92.2056 39.1746 92.4138 38.8011 92.6827 38.4971C92.9516 38.1844 93.2768 37.9455 93.6585 37.7805C94.0401 37.6154 94.4738 37.5329 94.9595 37.5329C95.4539 37.5329 95.8876 37.6198 96.2605 37.7935C96.6422 37.9672 96.9588 38.2104 97.2103 38.5231C97.4618 38.8271 97.6483 39.1833 97.7697 39.5915C97.8998 39.9998 97.9649 40.4384 97.9649 40.9075V41.4417H93.3202V41.6632C93.3202 42.1844 93.472 42.6143 93.7756 42.9531C94.0878 43.2832 94.5302 43.4482 95.1026 43.4482C95.5189 43.4482 95.8702 43.357 96.1565 43.1746C96.4427 42.9922 96.6855 42.7446 96.885 42.4319L97.7177 43.2528C97.4662 43.6697 97.1019 44.0041 96.6248 44.256C96.1478 44.4992 95.5927 44.6208 94.9595 44.6208ZM94.9595 38.6404C94.7166 38.6404 94.4911 38.6838 94.283 38.7707C94.0835 38.8575 93.91 38.9792 93.7625 39.1355C93.6238 39.2919 93.5154 39.4786 93.4373 39.6958C93.3592 39.9129 93.3202 40.1518 93.3202 40.4124V40.5036H96.4687V40.3733C96.4687 39.8521 96.3343 39.4352 96.0654 39.1225C95.7965 38.8011 95.4279 38.6404 94.9595 38.6404Z" fill="#333033"/>
<path d="M99.5348 34.8228H100.953V38.8098H101.018C101.165 38.4015 101.404 38.0888 101.734 37.8717C102.072 37.6458 102.466 37.5329 102.917 37.5329C103.776 37.5329 104.44 37.8456 104.908 38.471C105.376 39.0877 105.611 39.9564 105.611 41.0769C105.611 42.1974 105.376 43.0704 104.908 43.6958C104.44 44.3125 103.776 44.6208 102.917 44.6208C102.466 44.6208 102.072 44.5079 101.734 44.2821C101.404 44.0562 101.165 43.7435 101.018 43.344H100.953V44.4645H99.5348V34.8228ZM102.488 43.3961C102.983 43.3961 103.377 43.2397 103.672 42.927C103.967 42.6056 104.114 42.1844 104.114 41.6632V40.4906C104.114 39.9694 103.967 39.5524 103.672 39.2397C103.377 38.9184 102.983 38.7577 102.488 38.7577C102.054 38.7577 101.69 38.8662 101.395 39.0834C101.1 39.2919 100.953 39.5698 100.953 39.9173V42.2365C100.953 42.5839 101.1 42.8662 101.395 43.0834C101.69 43.2919 102.054 43.3961 102.488 43.3961Z" fill="#333033"/>
<path d="M107.95 36.4775C107.655 36.4775 107.438 36.408 107.299 36.2691C107.169 36.1301 107.104 35.952 107.104 35.7349V35.5134C107.104 35.2962 107.169 35.1181 107.299 34.9792C107.438 34.8402 107.655 34.7707 107.95 34.7707C108.245 34.7707 108.457 34.8402 108.587 34.9792C108.717 35.1181 108.782 35.2962 108.782 35.5134V35.7349C108.782 35.952 108.717 36.1301 108.587 36.2691C108.457 36.408 108.245 36.4775 107.95 36.4775ZM107.234 37.6893H108.652V44.4645H107.234V37.6893Z" fill="#333033"/>
<path d="M112.122 44.4645C111.636 44.4645 111.272 44.3429 111.029 44.0997C110.795 43.8478 110.677 43.5003 110.677 43.0573V34.8228H112.096V43.3049H113.032V44.4645H112.122Z" fill="#333033"/>
<path d="M115.103 36.4775C114.808 36.4775 114.591 36.408 114.452 36.2691C114.322 36.1301 114.257 35.952 114.257 35.7349V35.5134C114.257 35.2962 114.322 35.1181 114.452 34.9792C114.591 34.8402 114.808 34.7707 115.103 34.7707C115.398 34.7707 115.61 34.8402 115.74 34.9792C115.871 35.1181 115.936 35.2962 115.936 35.5134V35.7349C115.936 35.952 115.871 36.1301 115.74 36.2691C115.61 36.408 115.398 36.4775 115.103 36.4775ZM114.387 37.6893H115.806V44.4645H114.387V37.6893Z" fill="#333033"/>
<path d="M117.831 44.4645V37.6893H119.249V38.9922H119.314C119.409 38.6447 119.609 38.3407 119.912 38.0801C120.216 37.8195 120.636 37.6893 121.174 37.6893H121.552V39.0573H120.992C120.428 39.0573 119.995 39.1485 119.691 39.3309C119.396 39.5134 119.249 39.7826 119.249 40.1388V44.4645H117.831Z" fill="#333033"/>
<path d="M124.958 44.6208C124.316 44.6208 123.778 44.5079 123.345 44.2821C122.911 44.0562 122.534 43.7435 122.213 43.344L123.123 42.5101C123.375 42.8141 123.652 43.053 123.956 43.2267C124.268 43.3918 124.628 43.4743 125.036 43.4743C125.452 43.4743 125.76 43.3961 125.96 43.2397C126.168 43.0747 126.272 42.8489 126.272 42.5622C126.272 42.3451 126.198 42.1627 126.051 42.015C125.912 41.8586 125.665 41.7587 125.309 41.7153L124.685 41.6371C123.991 41.5503 123.444 41.3505 123.045 41.0378C122.655 40.7164 122.46 40.243 122.46 39.6176C122.46 39.2875 122.521 38.9965 122.642 38.7446C122.763 38.484 122.933 38.2669 123.149 38.0932C123.375 37.9108 123.639 37.7718 123.943 37.6762C124.255 37.5807 124.598 37.5329 124.971 37.5329C125.578 37.5329 126.072 37.6284 126.454 37.8195C126.844 38.0106 127.191 38.2756 127.495 38.6143L126.623 39.4482C126.45 39.2397 126.22 39.0617 125.934 38.914C125.656 38.7577 125.335 38.6795 124.971 38.6795C124.58 38.6795 124.29 38.7577 124.099 38.914C123.917 39.0704 123.826 39.2745 123.826 39.5264C123.826 39.787 123.908 39.9824 124.073 40.1127C124.238 40.243 124.502 40.3385 124.867 40.3994L125.491 40.4775C126.237 40.5904 126.779 40.8119 127.118 41.142C127.464 41.4634 127.638 41.8977 127.638 42.445C127.638 42.775 127.573 43.0747 127.443 43.344C127.321 43.6046 127.144 43.8304 126.909 44.0215C126.675 44.2126 126.393 44.3603 126.064 44.4645C125.734 44.5687 125.365 44.6208 124.958 44.6208Z" fill="#333033"/>
<path d="M129.956 36.4775C129.661 36.4775 129.444 36.408 129.305 36.2691C129.175 36.1301 129.11 35.952 129.11 35.7349V35.5134C129.11 35.2962 129.175 35.1181 129.305 34.9792C129.444 34.8402 129.661 34.7707 129.956 34.7707C130.25 34.7707 130.463 34.8402 130.593 34.9792C130.723 35.1181 130.788 35.2962 130.788 35.5134V35.7349C130.788 35.952 130.723 36.1301 130.593 36.2691C130.463 36.408 130.25 36.4775 129.956 36.4775ZM129.24 37.6893H130.658V44.4645H129.24V37.6893Z" fill="#333033"/>
<path d="M132.683 44.4645V37.6893H134.101V38.8098H134.166C134.314 38.445 134.535 38.1409 134.83 37.8977C135.133 37.6545 135.545 37.5329 136.066 37.5329C136.76 37.5329 137.298 37.7631 137.679 38.2235C138.069 38.6751 138.265 39.3223 138.265 40.1648V44.4645H136.847V40.3472C136.847 39.2875 136.421 38.7577 135.571 38.7577C135.389 38.7577 135.207 38.7837 135.025 38.8358C134.852 38.8793 134.695 38.9488 134.557 39.0443C134.418 39.1399 134.305 39.2615 134.218 39.4091C134.14 39.5568 134.101 39.7305 134.101 39.9303V44.4645H132.683Z" fill="#333033"/>
<path d="M140.946 36.4775C140.651 36.4775 140.434 36.408 140.295 36.2691C140.165 36.1301 140.1 35.952 140.1 35.7349V35.5134C140.1 35.2962 140.165 35.1181 140.295 34.9792C140.434 34.8402 140.651 34.7707 140.946 34.7707C141.241 34.7707 141.453 34.8402 141.583 34.9792C141.713 35.1181 141.778 35.2962 141.778 35.5134V35.7349C141.778 35.952 141.713 36.1301 141.583 36.2691C141.453 36.408 141.241 36.4775 140.946 36.4775ZM140.23 37.6893H141.648V44.4645H140.23V37.6893Z" fill="#333033"/>
<path d="M143.127 44.4645V43.3179L146.757 38.8489H143.244V37.6893H148.435V38.7837L144.753 43.3049H148.526V44.4645H143.127Z" fill="#333033"/>
<path d="M69.7246 26.8421L68.7513 23.8579H64.719L63.7767 26.8421H62L65.6769 15.8211H67.8707L71.5476 26.8421H69.7246ZM66.7738 17.4632H66.6965L65.1362 22.3263H68.3187L66.7738 17.4632Z" fill="#333033"/>
<path d="M73.0942 18.6316H74.7781V19.9895H74.8554C75.0305 19.4947 75.3137 19.1158 75.7051 18.8526C76.1067 18.5789 76.5754 18.4421 77.1109 18.4421C78.1306 18.4421 78.9185 18.8211 79.4747 19.5789C80.0308 20.3263 80.3089 21.3789 80.3089 22.7368C80.3089 24.0947 80.0308 25.1526 79.4747 25.9105C78.9185 26.6579 78.1306 27.0316 77.1109 27.0316C76.5754 27.0316 76.1067 26.8947 75.7051 26.6211C75.3137 26.3474 75.0305 25.9684 74.8554 25.4842H74.7781V30H73.0942V18.6316ZM76.6011 25.5474C77.1882 25.5474 77.6568 25.3579 78.007 24.9789C78.3572 24.5895 78.5323 24.0789 78.5323 23.4474V22.0263C78.5323 21.3947 78.3572 20.8895 78.007 20.5105C77.6568 20.1211 77.1882 19.9263 76.6011 19.9263C76.0861 19.9263 75.6536 20.0579 75.3034 20.3211C74.9532 20.5737 74.7781 20.9105 74.7781 21.3316V24.1421C74.7781 24.5632 74.9532 24.9053 75.3034 25.1684C75.6536 25.4211 76.0861 25.5474 76.6011 25.5474Z" fill="#333033"/>
<path d="M82.2369 18.6316H83.9209V19.9895H83.9981C84.1732 19.4947 84.4564 19.1158 84.8478 18.8526C85.2495 18.5789 85.7181 18.4421 86.2537 18.4421C87.2733 18.4421 88.0612 18.8211 88.6174 19.5789C89.1736 20.3263 89.4517 21.3789 89.4517 22.7368C89.4517 24.0947 89.1736 25.1526 88.6174 25.9105C88.0612 26.6579 87.2733 27.0316 86.2537 27.0316C85.7181 27.0316 85.2495 26.8947 84.8478 26.6211C84.4564 26.3474 84.1732 25.9684 83.9981 25.4842H83.9209V30H82.2369V18.6316ZM85.7439 25.5474C86.3309 25.5474 86.7996 25.3579 87.1497 24.9789C87.4999 24.5895 87.675 24.0789 87.675 23.4474V22.0263C87.675 21.3947 87.4999 20.8895 87.1497 20.5105C86.7996 20.1211 86.3309 19.9263 85.7439 19.9263C85.2289 19.9263 84.7963 20.0579 84.4461 20.3211C84.096 20.5737 83.9209 20.9105 83.9209 21.3316V24.1421C83.9209 24.5632 84.096 24.9053 84.4461 25.1684C84.7963 25.4211 85.2289 25.5474 85.7439 25.5474Z" fill="#333033"/>
<path d="M98.3832 27.0316C97.4768 27.0316 96.7044 26.8632 96.0658 26.5263C95.4376 26.1895 94.8968 25.7368 94.4437 25.1684L95.6487 24.0158C96.0298 24.4895 96.4469 24.8474 96.9001 25.0895C97.3635 25.3316 97.8888 25.4526 98.4759 25.4526C99.1659 25.4526 99.6861 25.2947 100.036 24.9789C100.386 24.6632 100.562 24.2368 100.562 23.7C100.562 23.2684 100.438 22.9263 100.191 22.6737C99.9436 22.4211 99.5058 22.2316 98.8776 22.1053L97.9197 21.9316C96.8692 21.7316 96.0813 21.3789 95.556 20.8737C95.0307 20.3684 94.7681 19.6737 94.7681 18.7895C94.7681 18.3053 94.8556 17.8684 95.0307 17.4789C95.2161 17.0789 95.4685 16.7474 95.7877 16.4842C96.1173 16.2105 96.5138 16 96.9773 15.8526C97.4408 15.7053 97.9609 15.6316 98.5377 15.6316C99.3513 15.6316 100.057 15.7789 100.654 16.0737C101.252 16.3579 101.761 16.7737 102.184 17.3211L100.963 18.4263C100.685 18.0579 100.345 17.7632 99.9436 17.5421C99.5419 17.3211 99.0424 17.2105 98.445 17.2105C97.827 17.2105 97.3481 17.3368 97.0082 17.5895C96.6683 17.8421 96.4984 18.2105 96.4984 18.6947C96.4984 19.1579 96.6374 19.5053 96.9155 19.7368C97.1936 19.9579 97.6262 20.1263 98.2133 20.2421L99.1711 20.4474C100.253 20.6579 101.04 21.0158 101.535 21.5211C102.039 22.0263 102.292 22.7211 102.292 23.6053C102.292 24.1211 102.204 24.5895 102.029 25.0105C101.854 25.4316 101.597 25.7947 101.257 26.1C100.927 26.3947 100.52 26.6263 100.036 26.7947C99.5522 26.9526 99.0012 27.0316 98.3832 27.0316Z" fill="#333033"/>
<path d="M106.459 26.8421C105.871 26.8421 105.429 26.6895 105.13 26.3842C104.831 26.0684 104.682 25.6263 104.682 25.0579V20.0368H103.43V18.6316H104.11C104.388 18.6316 104.579 18.5684 104.682 18.4421C104.795 18.3158 104.852 18.1105 104.852 17.8263V16.3895H106.366V18.6316H108.05V20.0368H106.366V25.4368H107.926V26.8421H106.459Z" fill="#333033"/>
<path d="M112.968 27.0316C112.411 27.0316 111.902 26.9316 111.438 26.7316C110.985 26.5316 110.599 26.2474 110.28 25.8789C109.96 25.5 109.713 25.0474 109.538 24.5211C109.363 23.9842 109.275 23.3895 109.275 22.7368C109.275 22.0842 109.363 21.4947 109.538 20.9684C109.713 20.4316 109.96 19.9789 110.28 19.6105C110.599 19.2316 110.985 18.9421 111.438 18.7421C111.902 18.5421 112.411 18.4421 112.968 18.4421C113.524 18.4421 114.028 18.5421 114.482 18.7421C114.945 18.9421 115.337 19.2316 115.656 19.6105C115.975 19.9789 116.222 20.4316 116.397 20.9684C116.572 21.4947 116.66 22.0842 116.66 22.7368C116.66 23.3895 116.572 23.9842 116.397 24.5211C116.222 25.0474 115.975 25.5 115.656 25.8789C115.337 26.2474 114.945 26.5316 114.482 26.7316C114.028 26.9316 113.524 27.0316 112.968 27.0316ZM112.968 25.6105C113.544 25.6105 114.008 25.4316 114.358 25.0737C114.708 24.7053 114.883 24.1579 114.883 23.4316V22.0421C114.883 21.3158 114.708 20.7737 114.358 20.4158C114.008 20.0474 113.544 19.8632 112.968 19.8632C112.391 19.8632 111.927 20.0474 111.577 20.4158C111.227 20.7737 111.052 21.3158 111.052 22.0421V23.4316C111.052 24.1579 111.227 24.7053 111.577 25.0737C111.927 25.4316 112.391 25.6105 112.968 25.6105Z" fill="#333033"/>
<path d="M118.536 26.8421V18.6316H120.22V20.2105H120.298C120.411 19.7895 120.648 19.4211 121.008 19.1053C121.369 18.7895 121.868 18.6316 122.507 18.6316H122.955V20.2895H122.29C121.621 20.2895 121.106 20.4 120.746 20.6211C120.395 20.8421 120.22 21.1684 120.22 21.6V26.8421H118.536Z" fill="#333033"/>
<path d="M127.527 27.0316C126.95 27.0316 126.435 26.9316 125.982 26.7316C125.529 26.5316 125.142 26.2474 124.823 25.8789C124.504 25.5 124.257 25.0474 124.081 24.5211C123.917 23.9842 123.834 23.3895 123.834 22.7368C123.834 22.0842 123.917 21.4947 124.081 20.9684C124.257 20.4316 124.504 19.9789 124.823 19.6105C125.142 19.2316 125.529 18.9421 125.982 18.7421C126.435 18.5421 126.95 18.4421 127.527 18.4421C128.114 18.4421 128.629 18.5474 129.072 18.7579C129.525 18.9684 129.901 19.2632 130.199 19.6421C130.498 20.0105 130.719 20.4421 130.864 20.9368C131.018 21.4316 131.095 21.9632 131.095 22.5316V23.1789H125.58V23.4474C125.58 24.0789 125.76 24.6 126.121 25.0105C126.492 25.4105 127.017 25.6105 127.697 25.6105C128.191 25.6105 128.608 25.5 128.948 25.2789C129.288 25.0579 129.576 24.7579 129.813 24.3789L130.802 25.3737C130.503 25.8789 130.071 26.2842 129.504 26.5895C128.938 26.8842 128.279 27.0316 127.527 27.0316ZM127.527 19.7842C127.238 19.7842 126.97 19.8368 126.723 19.9421C126.486 20.0474 126.28 20.1947 126.105 20.3842C125.941 20.5737 125.812 20.8 125.719 21.0632C125.626 21.3263 125.58 21.6158 125.58 21.9316V22.0421H129.319V21.8842C129.319 21.2526 129.159 20.7474 128.84 20.3684C128.521 19.9789 128.083 19.7842 127.527 19.7842Z" fill="#333033"/>
<path d="M133.542 15C133.933 15 134.217 15.0947 134.392 15.2842C134.567 15.4737 134.654 15.7211 134.654 16.0263V16.2947C134.654 16.5474 134.618 16.8105 134.546 17.0842C134.474 17.3474 134.371 17.6105 134.237 17.8737C134.103 18.1368 133.944 18.3895 133.758 18.6316C133.573 18.8737 133.367 19.0895 133.14 19.2789H131.935C132.265 18.9526 132.533 18.6316 132.739 18.3158C132.945 18 133.104 17.6579 133.218 17.2895C132.95 17.2368 132.749 17.1211 132.615 16.9421C132.491 16.7632 132.43 16.5526 132.43 16.3105V16.0263C132.43 15.7211 132.517 15.4737 132.692 15.2842C132.867 15.0947 133.151 15 133.542 15Z" fill="#333033"/>
<path d="M140.803 25.4842H140.725C140.55 25.9684 140.262 26.3474 139.86 26.6211C139.469 26.8947 139.005 27.0316 138.47 27.0316C137.45 27.0316 136.662 26.6579 136.106 25.9105C135.55 25.1526 135.272 24.0947 135.272 22.7368C135.272 21.3789 135.55 20.3263 136.106 19.5789C136.662 18.8211 137.45 18.4421 138.47 18.4421C139.005 18.4421 139.469 18.5789 139.86 18.8526C140.262 19.1158 140.55 19.4947 140.725 19.9895H140.803V15.1579H142.486V26.8421H140.803V25.4842ZM138.98 25.5474C139.494 25.5474 139.927 25.4211 140.277 25.1684C140.627 24.9053 140.803 24.5632 140.803 24.1421V21.3316C140.803 20.9105 140.627 20.5737 140.277 20.3211C139.927 20.0579 139.494 19.9263 138.98 19.9263C138.392 19.9263 137.924 20.1211 137.574 20.5105C137.223 20.8895 137.048 21.3947 137.048 22.0263V23.4474C137.048 24.0789 137.223 24.5895 137.574 24.9789C137.924 25.3579 138.392 25.5474 138.98 25.5474Z" fill="#333033"/>
<path d="M150.78 26.8421C150.337 26.8421 149.997 26.7158 149.76 26.4632C149.523 26.2 149.379 25.8684 149.327 25.4684H149.25C149.096 25.9842 148.812 26.3737 148.4 26.6368C147.988 26.9 147.489 27.0316 146.902 27.0316C146.068 27.0316 145.424 26.8105 144.971 26.3684C144.528 25.9263 144.306 25.3316 144.306 24.5842C144.306 23.7632 144.595 23.1474 145.171 22.7368C145.759 22.3263 146.613 22.1211 147.736 22.1211H149.188V21.4263C149.188 20.9211 149.054 20.5316 148.787 20.2579C148.519 19.9842 148.102 19.8474 147.535 19.8474C147.061 19.8474 146.675 19.9526 146.377 20.1632C146.078 20.3737 145.826 20.6421 145.62 20.9684L144.615 20.0368C144.883 19.5737 145.259 19.1947 145.743 18.9C146.227 18.5947 146.861 18.4421 147.643 18.4421C148.684 18.4421 149.482 18.6895 150.038 19.1842C150.594 19.6789 150.872 20.3895 150.872 21.3158V25.4368H151.722V26.8421H150.78ZM147.381 25.7211C147.906 25.7211 148.339 25.6053 148.678 25.3737C149.018 25.1316 149.188 24.8105 149.188 24.4105V23.2263H147.767C146.603 23.2263 146.021 23.5947 146.021 24.3316V24.6158C146.021 24.9842 146.14 25.2632 146.377 25.4526C146.624 25.6316 146.958 25.7211 147.381 25.7211Z" fill="#333033"/>
<path d="M153.372 26.8421V18.6316H155.056V19.9895H155.134C155.309 19.5474 155.571 19.1789 155.921 18.8842C156.282 18.5895 156.771 18.4421 157.389 18.4421C158.213 18.4421 158.852 18.7211 159.305 19.2789C159.768 19.8263 160 20.6105 160 21.6316V26.8421H158.316V21.8526C158.316 20.5684 157.811 19.9263 156.802 19.9263C156.586 19.9263 156.369 19.9579 156.153 20.0211C155.947 20.0737 155.762 20.1579 155.597 20.2737C155.432 20.3895 155.298 20.5368 155.195 20.7158C155.103 20.8947 155.056 21.1053 155.056 21.3474V26.8421H153.372Z" fill="#333033"/>
</svg>
