<svg width="47" height="27" viewBox="0 0 47 27" fill="none" xmlns="http://www.w3.org/2000/svg">
<path fill-rule="evenodd" clip-rule="evenodd" d="M41.5189 16.4778V26.2373H21.7601V16.4778H41.5189ZM21.7165 1.45339C21.5131 1.48246 21.3096 1.5188 21.1097 1.55876C20.4263 1.69617 19.7589 1.90441 19.1186 2.18009C18.4846 2.45291 17.8765 2.78248 17.3019 3.16476C16.7415 3.54151 16.2194 3.97232 15.7431 4.451C15.4051 4.79265 15.0907 5.15684 14.802 5.54104H18.0431C19.1069 4.04222 20.3395 2.67067 21.7165 1.45339ZM19.4565 18.3563H19.1186C19.2276 18.5016 19.3402 18.6433 19.4565 18.7887V20.3656C18.8715 19.7352 18.3323 19.0637 17.8433 18.3563H14.7766C15.0712 18.741 15.3917 19.1052 15.7358 19.4463C16.2121 19.925 16.7342 20.3558 17.2946 20.7326C17.8693 21.1148 18.4773 21.4444 19.1113 21.7172H19.1404L19.4492 21.8408V23.2941C19.1695 23.1997 18.8897 23.0943 18.6135 22.978H18.5772C17.8671 22.6777 17.186 22.3128 16.5425 21.888C15.2712 21.0333 14.1779 19.94 13.3232 18.6687C12.8984 18.0253 12.5335 17.3442 12.2332 16.634C11.9231 15.9053 11.6881 15.1468 11.5319 14.3704C11.2219 12.7867 11.2219 11.1579 11.5319 9.57419C11.6849 8.81044 11.915 8.06418 12.2187 7.34687V7.31054C12.519 6.60038 12.8839 5.91928 13.3087 5.2758C13.7353 4.64184 14.222 4.05048 14.7621 3.50994C15.3008 2.96784 15.8924 2.48096 16.5279 2.05655C17.17 1.62422 17.8512 1.25319 18.5627 0.948343C19.2991 0.631646 20.0661 0.391778 20.8518 0.23255C22.4355 -0.0775168 24.0642 -0.0775168 25.6479 0.23255C26.4117 0.385557 27.1579 0.615643 27.8752 0.919275H27.9116C28.6198 1.22937 29.2974 1.60526 29.9354 2.04202C31.2077 2.89281 32.3002 3.9854 33.151 5.25763C33.5758 5.90115 33.9407 6.58225 34.2411 7.29237C34.5511 8.02113 34.7861 8.7796 34.9423 9.55602C35.2485 11.0772 35.2682 12.6421 35.0005 14.1705H33.6198V14.0797C33.7262 13.5477 33.7918 13.0084 33.816 12.4664H30.753C30.7337 13.0398 30.662 13.6102 30.5386 14.1705H29.474C29.6121 13.6121 29.6937 13.0412 29.7174 12.4664H23.7585V14.1705H22.7266V12.4737H16.7714C16.8755 14.2207 17.4451 15.908 18.421 17.3607H19.4565V18.3563ZM14.1117 17.3607H17.2183C16.3325 15.8777 15.8258 14.1992 15.7431 12.4737H12.6583C12.6839 13.0169 12.7507 13.5575 12.8581 14.0906C12.9955 14.7737 13.2025 15.4409 13.4758 16.0817C13.6646 16.5205 13.8793 16.9475 14.119 17.3607H14.1117ZM12.6583 11.4345H15.7649C15.9205 9.71065 16.4713 8.04583 17.3745 6.56931H14.1044C13.8685 6.97522 13.6574 7.39505 13.4722 7.82649V7.85919C13.2034 8.48763 12.9977 9.14123 12.8581 9.81036C12.7529 10.3424 12.6885 10.8817 12.6656 11.4236L12.6583 11.4345ZM16.7968 11.4345H22.7266V6.56931H18.5845C17.5961 8.01859 16.9819 9.69007 16.7968 11.4345ZM23.7658 11.4345H29.6956C29.5105 9.69007 28.8964 8.01859 27.908 6.56931H23.7585V11.4345H23.7658ZM30.7348 11.4345H33.8341C33.8105 10.8889 33.7449 10.3459 33.6379 9.81036C33.5023 9.1261 33.2966 8.45764 33.0239 7.81559C32.8373 7.38482 32.6262 6.96507 32.3916 6.55841H29.1215C30.0292 8.03713 30.5814 9.70625 30.7348 11.4345ZM19.3112 5.53014H22.7266V1.94391C21.4712 3.02224 20.327 4.22365 19.3112 5.53014ZM23.7658 5.53014H27.1776C26.1608 4.2233 25.0154 3.02186 23.7585 1.94391V5.53014H23.7658ZM28.4566 5.53014H31.6977C31.4088 5.14502 31.0931 4.78077 30.753 4.4401C30.2816 3.96397 29.7643 3.53556 29.2087 3.16112C28.6336 2.78067 28.0256 2.45235 27.392 2.18009H27.3593C26.7282 1.91098 26.0705 1.70882 25.3972 1.57693C25.1974 1.53696 24.9975 1.50063 24.7941 1.47156C26.1656 2.68039 27.3945 4.04209 28.4566 5.53014ZM24.9212 17.9203L38.3287 18.0111C38.3382 18.3902 38.4955 18.7506 38.767 19.0154C39.0386 19.2801 39.4029 19.4283 39.7821 19.4281L39.8402 23.2869C39.4605 23.2954 39.0992 23.4523 38.8336 23.724C38.5681 23.9956 38.4195 24.3604 38.4196 24.7403L25.0084 24.6494C24.9999 24.2697 24.843 23.9083 24.5714 23.6428C24.2997 23.3773 23.9349 23.2286 23.5551 23.2287L23.4969 19.3736C23.8773 19.366 24.2396 19.2096 24.5059 18.9378C24.7722 18.6661 24.9213 18.3007 24.9212 17.9203Z" fill="#3B9112"/>
<path fill-rule="evenodd" clip-rule="evenodd" d="M9.34527 13.6355L7.01622 14.3259C7.296 17.4325 8.66581 19.5435 11.4236 20.6226C6.75461 21.7127 3.60076 19.2492 2.37629 15.732L0 16.4514L3.27012 10.4126L9.34527 13.6355Z" fill="#687EAA"/>
<path fill-rule="evenodd" clip-rule="evenodd" d="M37.6547 10.7187L39.9838 10.0283C39.704 6.92169 38.3342 4.81065 35.5764 3.73151C40.2454 2.64147 43.3992 5.10496 44.6237 8.62215L47 7.90273L43.7299 13.9415L37.6547 10.7187Z" fill="#F15A24"/>
<path d="M30.9489 18.5307H31.4933V19.9384C32.0428 19.7386 32.5974 19.5286 33.1508 19.327V19.7795C32.5967 19.9793 32.0469 20.1825 31.4933 20.3823V20.6155C32.0467 20.4138 32.6012 20.2038 33.1508 20.004V20.4531C32.6015 20.6586 32.0458 20.8573 31.4933 21.0593V23.3927C31.8636 23.3446 32.2152 23.2004 32.5133 22.9742C32.8114 22.7481 33.0458 22.4477 33.1935 22.1028L33.1989 22.0888C33.3109 21.8245 33.3683 21.54 33.3674 21.2528V21.251H33.9323V21.3372C33.9206 21.7362 33.822 22.1277 33.6435 22.4843L33.6507 22.4686C33.4993 22.7708 33.2945 23.0428 33.0465 23.2714L33.0445 23.2732C32.5504 23.7295 31.9037 23.9821 31.2329 23.9809C31.1329 23.9809 31.0342 23.9755 30.9369 23.9648L30.9489 23.966V21.2596C30.6088 21.3799 30.2737 21.5055 29.9355 21.6274V21.1915C30.2744 21.0671 30.6142 20.9438 30.9489 20.815V20.5837C30.6117 20.6995 30.2737 20.8293 29.9355 20.9499V20.5162C30.2721 20.3891 30.6149 20.2679 30.9489 20.138V18.5307Z" fill="#3B9112"/>
</svg>
