<svg width="12" height="25" viewBox="0 0 12 25" fill="none" xmlns="http://www.w3.org/2000/svg">
<path fill-rule="evenodd" clip-rule="evenodd" d="M2.46154 12.5385V24.6923C2.46154 24.8462 2.61538 25 2.76923 25H7.30769C7.46154 25 7.61539 24.8462 7.61539 24.6923V12.3846H10.9231C11.0769 12.3846 11.2308 12.2308 11.2308 12.0769L11.5385 8.38462C11.5385 8.23077 11.3846 8.07692 11.2308 8.07692H7.61539V5.46154C7.61539 4.84615 8.15385 4.30769 8.76923 4.30769H11.3077C11.4615 4.30769 11.6154 4.15385 11.6154 4V0.307692C11.6154 0.153846 11.4615 0 11.3077 0H7.07692C4.53846 0 2.53846 2 2.53846 4.53846V8.15385H0.307693C0.153847 8.15385 0 8.30769 0 8.46154V12.1538C0 12.3077 0.153847 12.4615 0.307693 12.4615H2.46154V12.5385Z" fill="#333033"/>
</svg>
