<svg width="187" height="60" viewBox="0 0 187 60" fill="none" xmlns="http://www.w3.org/2000/svg">
<path d="M186.5 51.3578C186.5 55.5044 183.045 58.8791 178.738 58.8791H8.26237C3.95456 58.8791 0.5 55.5044 0.5 51.3578V8.02133C0.5 3.87475 3.95456 0.5 8.26237 0.5H178.738C183.045 0.5 186.5 3.87475 186.5 8.02133V51.3578Z" stroke="#242424"/>
<path d="M12 10.6353V31.0011V51.403L32.3839 31.0011L12 10.6353Z" fill="url(#paint0_linear)"/>
<path d="M37.7014 25.5834L29.5366 20.8272L12 10.6353V10.7783L32.27 31.0191L37.7014 25.5834Z" fill="url(#paint1_linear)"/>
<path d="M12 51.2601V51.4029L29.5366 41.2288L37.7014 36.4452L32.27 31.019L12 51.2601Z" fill="url(#paint2_linear)"/>
<path d="M37.9117 25.7014L32.3838 31.019L37.9117 36.3365L47.4501 31.019L37.9117 25.7014Z" fill="url(#paint3_linear)"/>
<path d="M63 44.8436V43.645H64.236V36.9479H63V35.7492H66.9551V36.9479H65.7062V43.645H66.9551V44.8436H63ZM64.9776 34.8371C64.648 34.8371 64.4138 34.7633 64.275 34.6156C64.1362 34.468 64.0668 34.2812 64.0668 34.0554V33.7818C64.0668 33.5559 64.1362 33.3692 64.275 33.2215C64.4138 33.0738 64.648 33 64.9776 33C65.3072 33 65.5414 33.0738 65.6801 33.2215C65.8189 33.3692 65.8883 33.5559 65.8883 33.7818V34.0554C65.8883 34.2812 65.8189 34.468 65.6801 34.6156C65.5414 34.7633 65.3072 34.8371 64.9776 34.8371Z" fill="#333033"/>
<path d="M68.6987 44.8436V38.0684H70.1169V39.1889H70.1819C70.3294 38.8241 70.5505 38.5201 70.8454 38.2769C71.149 38.0337 71.561 37.9121 72.0814 37.9121C72.7753 37.9121 73.3131 38.1422 73.6947 38.6026C74.085 39.0543 74.2802 39.7014 74.2802 40.544V44.8436H72.862V40.7264C72.862 39.6667 72.437 39.1368 71.587 39.1368C71.4049 39.1368 71.2227 39.1629 71.0406 39.215C70.8671 39.2584 70.711 39.3279 70.5722 39.4235C70.4334 39.519 70.3207 39.6406 70.234 39.7883C70.1559 39.9359 70.1169 40.1097 70.1169 40.3094V44.8436H68.6987Z" fill="#333033"/>
<path d="M80.5001 43.7231H80.4351C80.2876 44.1227 80.0448 44.4354 79.7065 44.6612C79.3769 44.8871 78.9866 45 78.5356 45C77.6769 45 77.0134 44.6916 76.545 44.0749C76.0766 43.4495 75.8424 42.5765 75.8424 41.456C75.8424 40.3355 76.0766 39.4669 76.545 38.8502C77.0134 38.2248 77.6769 37.9121 78.5356 37.9121C78.9866 37.9121 79.3769 38.025 79.7065 38.2508C80.0448 38.468 80.2876 38.7807 80.4351 39.1889H80.5001V35.202H81.9183V44.8436H80.5001V43.7231ZM78.9649 43.7752C79.3986 43.7752 79.7629 43.671 80.0578 43.4625C80.3527 43.2454 80.5001 42.9631 80.5001 42.6156V40.2964C80.5001 39.949 80.3527 39.671 80.0578 39.4625C79.7629 39.2454 79.3986 39.1368 78.9649 39.1368C78.4705 39.1368 78.0759 39.2975 77.781 39.6189C77.4861 39.9316 77.3386 40.3485 77.3386 40.8697V42.0423C77.3386 42.5635 77.4861 42.9848 77.781 43.3062C78.0759 43.6189 78.4705 43.7752 78.9649 43.7752Z" fill="#333033"/>
<path d="M84.6608 36.8567C84.3659 36.8567 84.1491 36.7872 84.0103 36.6482C83.8802 36.5092 83.8151 36.3312 83.8151 36.114V35.8925C83.8151 35.6754 83.8802 35.4973 84.0103 35.3583C84.1491 35.2193 84.3659 35.1498 84.6608 35.1498C84.9557 35.1498 85.1682 35.2193 85.2983 35.3583C85.4284 35.4973 85.4935 35.6754 85.4935 35.8925V36.114C85.4935 36.3312 85.4284 36.5092 85.2983 36.6482C85.1682 36.7872 84.9557 36.8567 84.6608 36.8567ZM83.9452 38.0684H85.3634V44.8436H83.9452V38.0684Z" fill="#333033"/>
<path d="M87.3884 44.8436V38.0684H88.8065V39.3713H88.8716C88.967 39.0239 89.1665 38.7199 89.4701 38.4593C89.7736 38.1987 90.1943 38.0684 90.7321 38.0684H91.1094V39.4365H90.5499C89.9861 39.4365 89.5524 39.5277 89.2489 39.7101C88.954 39.8925 88.8065 40.1618 88.8065 40.5179V44.8436H87.3884Z" fill="#333033"/>
<path d="M94.9595 45C94.4738 45 94.0401 44.9175 93.6585 44.7524C93.2768 44.5874 92.9516 44.3529 92.6827 44.0489C92.4138 43.7362 92.2056 43.3626 92.0582 42.9283C91.9194 42.4853 91.85 41.9946 91.85 41.456C91.85 40.9175 91.9194 40.4311 92.0582 39.9967C92.2056 39.5537 92.4138 39.1802 92.6827 38.8762C92.9516 38.5635 93.2768 38.3246 93.6585 38.1596C94.0401 37.9946 94.4738 37.9121 94.9595 37.9121C95.4539 37.9121 95.8876 37.9989 96.2605 38.1726C96.6422 38.3464 96.9588 38.5896 97.2103 38.9023C97.4618 39.2063 97.6483 39.5624 97.7697 39.9707C97.8998 40.3789 97.9649 40.8176 97.9649 41.2866V41.8208H93.3202V42.0423C93.3202 42.5635 93.472 42.9935 93.7756 43.3322C94.0878 43.6623 94.5302 43.8274 95.1026 43.8274C95.5189 43.8274 95.8702 43.7362 96.1565 43.5537C96.4427 43.3713 96.6855 43.1238 96.885 42.8111L97.7177 43.6319C97.4662 44.0489 97.1019 44.3833 96.6248 44.6352C96.1478 44.8784 95.5927 45 94.9595 45ZM94.9595 39.0195C94.7166 39.0195 94.4911 39.063 94.283 39.1498C94.0835 39.2367 93.91 39.3583 93.7625 39.5147C93.6238 39.671 93.5154 39.8578 93.4373 40.0749C93.3592 40.2921 93.3202 40.5309 93.3202 40.7915V40.8827H96.4687V40.7524C96.4687 40.2313 96.3343 39.8143 96.0654 39.5016C95.7965 39.1802 95.4279 39.0195 94.9595 39.0195Z" fill="#333033"/>
<path d="M99.5348 35.202H100.953V39.1889H101.018C101.165 38.7807 101.404 38.468 101.734 38.2508C102.072 38.025 102.466 37.9121 102.917 37.9121C103.776 37.9121 104.44 38.2248 104.908 38.8502C105.376 39.4669 105.611 40.3355 105.611 41.456C105.611 42.5765 105.376 43.4495 104.908 44.0749C104.44 44.6916 103.776 45 102.917 45C102.466 45 102.072 44.8871 101.734 44.6612C101.404 44.4354 101.165 44.1227 101.018 43.7231H100.953V44.8436H99.5348V35.202ZM102.488 43.7752C102.983 43.7752 103.377 43.6189 103.672 43.3062C103.967 42.9848 104.114 42.5635 104.114 42.0423V40.8697C104.114 40.3485 103.967 39.9316 103.672 39.6189C103.377 39.2975 102.983 39.1368 102.488 39.1368C102.054 39.1368 101.69 39.2454 101.395 39.4625C101.1 39.671 100.953 39.949 100.953 40.2964V42.6156C100.953 42.9631 101.1 43.2454 101.395 43.4625C101.69 43.671 102.054 43.7752 102.488 43.7752Z" fill="#333033"/>
<path d="M107.95 36.8567C107.655 36.8567 107.438 36.7872 107.299 36.6482C107.169 36.5092 107.104 36.3312 107.104 36.114V35.8925C107.104 35.6754 107.169 35.4973 107.299 35.3583C107.438 35.2193 107.655 35.1498 107.95 35.1498C108.245 35.1498 108.457 35.2193 108.587 35.3583C108.717 35.4973 108.782 35.6754 108.782 35.8925V36.114C108.782 36.3312 108.717 36.5092 108.587 36.6482C108.457 36.7872 108.245 36.8567 107.95 36.8567ZM107.234 38.0684H108.652V44.8436H107.234V38.0684Z" fill="#333033"/>
<path d="M112.122 44.8436C111.636 44.8436 111.272 44.722 111.029 44.4788C110.795 44.2269 110.677 43.8795 110.677 43.4365V35.202H112.096V43.684H113.032V44.8436H112.122Z" fill="#333033"/>
<path d="M115.103 36.8567C114.808 36.8567 114.591 36.7872 114.452 36.6482C114.322 36.5092 114.257 36.3312 114.257 36.114V35.8925C114.257 35.6754 114.322 35.4973 114.452 35.3583C114.591 35.2193 114.808 35.1498 115.103 35.1498C115.398 35.1498 115.61 35.2193 115.74 35.3583C115.871 35.4973 115.936 35.6754 115.936 35.8925V36.114C115.936 36.3312 115.871 36.5092 115.74 36.6482C115.61 36.7872 115.398 36.8567 115.103 36.8567ZM114.387 38.0684H115.806V44.8436H114.387V38.0684Z" fill="#333033"/>
<path d="M117.831 44.8436V38.0684H119.249V39.3713H119.314C119.409 39.0239 119.609 38.7199 119.912 38.4593C120.216 38.1987 120.636 38.0684 121.174 38.0684H121.552V39.4365H120.992C120.428 39.4365 119.995 39.5277 119.691 39.7101C119.396 39.8925 119.249 40.1618 119.249 40.5179V44.8436H117.831Z" fill="#333033"/>
<path d="M124.958 45C124.316 45 123.778 44.8871 123.345 44.6612C122.911 44.4354 122.534 44.1227 122.213 43.7231L123.123 42.8893C123.375 43.1933 123.652 43.4321 123.956 43.6059C124.268 43.7709 124.628 43.8534 125.036 43.8534C125.452 43.8534 125.76 43.7752 125.96 43.6189C126.168 43.4539 126.272 43.228 126.272 42.9414C126.272 42.7242 126.198 42.5418 126.051 42.3941C125.912 42.2378 125.665 42.1379 125.309 42.0945L124.685 42.0163C123.991 41.9294 123.444 41.7296 123.045 41.4169C122.655 41.0955 122.46 40.6221 122.46 39.9967C122.46 39.6667 122.521 39.3757 122.642 39.1238C122.763 38.8632 122.933 38.646 123.149 38.4723C123.375 38.2899 123.639 38.1509 123.943 38.0554C124.255 37.9598 124.598 37.9121 124.971 37.9121C125.578 37.9121 126.072 38.0076 126.454 38.1987C126.844 38.3898 127.191 38.6547 127.495 38.9935L126.623 39.8274C126.45 39.6189 126.22 39.4408 125.934 39.2932C125.656 39.1368 125.335 39.0586 124.971 39.0586C124.58 39.0586 124.29 39.1368 124.099 39.2932C123.917 39.4495 123.826 39.6536 123.826 39.9055C123.826 40.1661 123.908 40.3616 124.073 40.4919C124.238 40.6221 124.502 40.7177 124.867 40.7785L125.491 40.8567C126.237 40.9696 126.779 41.1911 127.118 41.5212C127.464 41.8426 127.638 42.2769 127.638 42.8241C127.638 43.1542 127.573 43.4539 127.443 43.7231C127.321 43.9837 127.144 44.2096 126.909 44.4007C126.675 44.5917 126.393 44.7394 126.064 44.8436C125.734 44.9479 125.365 45 124.958 45Z" fill="#333033"/>
<path d="M129.956 36.8567C129.661 36.8567 129.444 36.7872 129.305 36.6482C129.175 36.5092 129.11 36.3312 129.11 36.114V35.8925C129.11 35.6754 129.175 35.4973 129.305 35.3583C129.444 35.2193 129.661 35.1498 129.956 35.1498C130.25 35.1498 130.463 35.2193 130.593 35.3583C130.723 35.4973 130.788 35.6754 130.788 35.8925V36.114C130.788 36.3312 130.723 36.5092 130.593 36.6482C130.463 36.7872 130.25 36.8567 129.956 36.8567ZM129.24 38.0684H130.658V44.8436H129.24V38.0684Z" fill="#333033"/>
<path d="M132.683 44.8436V38.0684H134.101V39.1889H134.166C134.314 38.8241 134.535 38.5201 134.83 38.2769C135.133 38.0337 135.545 37.9121 136.066 37.9121C136.76 37.9121 137.298 38.1422 137.679 38.6026C138.069 39.0543 138.265 39.7014 138.265 40.544V44.8436H136.847V40.7264C136.847 39.6667 136.421 39.1368 135.571 39.1368C135.389 39.1368 135.207 39.1629 135.025 39.215C134.852 39.2584 134.695 39.3279 134.557 39.4235C134.418 39.519 134.305 39.6406 134.218 39.7883C134.14 39.9359 134.101 40.1097 134.101 40.3094V44.8436H132.683Z" fill="#333033"/>
<path d="M140.946 36.8567C140.651 36.8567 140.434 36.7872 140.295 36.6482C140.165 36.5092 140.1 36.3312 140.1 36.114V35.8925C140.1 35.6754 140.165 35.4973 140.295 35.3583C140.434 35.2193 140.651 35.1498 140.946 35.1498C141.241 35.1498 141.453 35.2193 141.583 35.3583C141.713 35.4973 141.778 35.6754 141.778 35.8925V36.114C141.778 36.3312 141.713 36.5092 141.583 36.6482C141.453 36.7872 141.241 36.8567 140.946 36.8567ZM140.23 38.0684H141.648V44.8436H140.23V38.0684Z" fill="#333033"/>
<path d="M143.127 44.8436V43.6971L146.757 39.228H143.244V38.0684H148.435V39.1629L144.753 43.684H148.526V44.8436H143.127Z" fill="#333033"/>
<path d="M69.3392 25.0416H69.2781C69.1659 25.5717 68.8601 26.0135 68.3607 26.3669C67.8714 26.71 67.219 26.8815 66.4035 26.8815C65.7715 26.8815 65.1854 26.762 64.6452 26.5229C64.1049 26.2734 63.636 25.9148 63.2385 25.447C62.8511 24.9688 62.5453 24.3815 62.3211 23.685C62.107 22.9782 62 22.1674 62 21.2526C62 20.3482 62.1121 19.5478 62.3364 18.8514C62.5606 18.1445 62.8766 17.552 63.2844 17.0738C63.6921 16.5956 64.1814 16.237 64.7522 15.9979C65.323 15.7484 65.9601 15.6237 66.6635 15.6237C67.6216 15.6237 68.432 15.842 69.0946 16.2786C69.7572 16.7048 70.2719 17.3025 70.6389 18.0717L69.2322 18.9137C69.0283 18.4044 68.7123 17.9938 68.2842 17.6819C67.8561 17.3597 67.3158 17.1985 66.6635 17.1985C65.8174 17.1985 65.1345 17.474 64.6146 18.0249C64.1049 18.5759 63.8501 19.3555 63.8501 20.3638V22.1414C63.8501 23.1497 64.1049 23.9293 64.6146 24.4802C65.1345 25.0312 65.8174 25.3067 66.6635 25.3067C66.9999 25.3067 67.3209 25.2651 67.6267 25.1819C67.9325 25.0884 68.1976 24.9584 68.4218 24.7921C68.6563 24.6154 68.8398 24.4023 68.9723 24.1528C69.115 23.8929 69.1863 23.5915 69.1863 23.2484V22.4064H66.9846V20.894H70.8529V26.6944H69.3392V25.0416Z" fill="#333033"/>
<path d="M76.2515 26.8815C75.7011 26.8815 75.1965 26.7827 74.7378 26.5852C74.2893 26.3877 73.9071 26.1071 73.5911 25.7432C73.2751 25.369 73.0304 24.922 72.8571 24.4023C72.6839 23.8721 72.5972 23.2848 72.5972 22.6403C72.5972 21.9958 72.6839 21.4137 72.8571 20.894C73.0304 20.3638 73.2751 19.9168 73.5911 19.553C73.9071 19.1788 74.2893 18.8929 74.7378 18.6954C75.1965 18.4979 75.7011 18.3992 76.2515 18.3992C76.802 18.3992 77.3015 18.4979 77.75 18.6954C78.2087 18.8929 78.596 19.1788 78.912 19.553C79.228 19.9168 79.4726 20.3638 79.6459 20.894C79.8192 21.4137 79.9059 21.9958 79.9059 22.6403C79.9059 23.2848 79.8192 23.8721 79.6459 24.4023C79.4726 24.922 79.228 25.369 78.912 25.7432C78.596 26.1071 78.2087 26.3877 77.75 26.5852C77.3015 26.7827 76.802 26.8815 76.2515 26.8815ZM76.2515 25.4782C76.8224 25.4782 77.2811 25.3015 77.6276 24.948C77.9742 24.5842 78.1475 24.0437 78.1475 23.3264V21.9543C78.1475 21.237 77.9742 20.7017 77.6276 20.3482C77.2811 19.9844 76.8224 19.8025 76.2515 19.8025C75.6807 19.8025 75.222 19.9844 74.8754 20.3482C74.5289 20.7017 74.3556 21.237 74.3556 21.9543V23.3264C74.3556 24.0437 74.5289 24.5842 74.8754 24.948C75.222 25.3015 75.6807 25.4782 76.2515 25.4782Z" fill="#333033"/>
<path d="M84.8821 26.8815C84.3316 26.8815 83.827 26.7827 83.3683 26.5852C82.9198 26.3877 82.5376 26.1071 82.2216 25.7432C81.9056 25.369 81.661 24.922 81.4877 24.4023C81.3144 23.8721 81.2277 23.2848 81.2277 22.6403C81.2277 21.9958 81.3144 21.4137 81.4877 20.894C81.661 20.3638 81.9056 19.9168 82.2216 19.553C82.5376 19.1788 82.9198 18.8929 83.3683 18.6954C83.827 18.4979 84.3316 18.3992 84.8821 18.3992C85.4325 18.3992 85.932 18.4979 86.3805 18.6954C86.8392 18.8929 87.2265 19.1788 87.5425 19.553C87.8585 19.9168 88.1032 20.3638 88.2765 20.894C88.4497 21.4137 88.5364 21.9958 88.5364 22.6403C88.5364 23.2848 88.4497 23.8721 88.2765 24.4023C88.1032 24.922 87.8585 25.369 87.5425 25.7432C87.2265 26.1071 86.8392 26.3877 86.3805 26.5852C85.932 26.7827 85.4325 26.8815 84.8821 26.8815ZM84.8821 25.4782C85.4529 25.4782 85.9116 25.3015 86.2582 24.948C86.6047 24.5842 86.778 24.0437 86.778 23.3264V21.9543C86.778 21.237 86.6047 20.7017 86.2582 20.3482C85.9116 19.9844 85.4529 19.8025 84.8821 19.8025C84.3112 19.8025 83.8525 19.9844 83.506 20.3482C83.1594 20.7017 82.9861 21.237 82.9861 21.9543V23.3264C82.9861 24.0437 83.1594 24.5842 83.506 24.948C83.8525 25.3015 84.3112 25.4782 84.8821 25.4782Z" fill="#333033"/>
<path d="M97.3657 27.4584C97.3657 28.3004 97.0497 28.9345 96.4177 29.3607C95.7857 29.7869 94.7562 30 93.3291 30C92.6767 30 92.1212 29.9532 91.6625 29.8597C91.214 29.7765 90.8419 29.6518 90.5463 29.4854C90.2609 29.3191 90.0519 29.1164 89.9194 28.8773C89.7869 28.6383 89.7206 28.3628 89.7206 28.0509C89.7206 27.6039 89.8379 27.2557 90.0723 27.0062C90.317 26.7568 90.6533 26.5852 91.0815 26.4917V26.3202C90.4801 26.1227 90.1793 25.7069 90.1793 25.0728C90.1793 24.657 90.317 24.3399 90.5922 24.1216C90.8674 23.8929 91.1987 23.7318 91.586 23.6383V23.5759C91.1171 23.3472 90.7553 23.0301 90.5004 22.6247C90.2558 22.2089 90.1335 21.7256 90.1335 21.1746C90.1335 20.343 90.4036 19.6726 90.9439 19.1632C91.4943 18.6538 92.2792 18.3992 93.2985 18.3992C93.8592 18.3992 94.3382 18.4823 94.7358 18.6486V18.4304C94.7358 18.0665 94.8173 17.7859 94.9804 17.5884C95.1537 17.3805 95.4187 17.2765 95.7755 17.2765H96.9987V18.6486H95.378V18.9761C95.7347 19.2152 96.01 19.527 96.2036 19.9116C96.3973 20.2859 96.4941 20.7069 96.4941 21.1746C96.4941 21.9958 96.2189 22.6611 95.6685 23.1705C95.118 23.6694 94.3331 23.9189 93.3138 23.9189C92.9265 23.9189 92.5799 23.8773 92.2741 23.7942C92.0702 23.8669 91.8918 23.9709 91.7389 24.106C91.586 24.2308 91.5096 24.3971 91.5096 24.605C91.5096 24.8233 91.6064 24.9792 91.8001 25.0728C91.9938 25.1663 92.269 25.2131 92.6258 25.2131H94.5829C95.5614 25.2131 96.2699 25.4158 96.7082 25.8212C97.1465 26.2162 97.3657 26.762 97.3657 27.4584ZM95.8061 27.6455C95.8061 27.3649 95.6991 27.1414 95.485 26.9751C95.2811 26.8087 94.904 26.7256 94.3535 26.7256H91.6625C91.2955 26.9439 91.112 27.2557 91.112 27.6611C91.112 27.9938 91.2395 28.2588 91.4943 28.4563C91.7593 28.6642 92.2027 28.7682 92.8245 28.7682H93.8643C95.1588 28.7682 95.8061 28.394 95.8061 27.6455ZM93.3138 22.6871C93.8031 22.6871 94.1802 22.578 94.4453 22.3597C94.7205 22.131 94.8581 21.7827 94.8581 21.315V21.0031C94.8581 20.5353 94.7205 20.1923 94.4453 19.974C94.1802 19.7453 93.8031 19.631 93.3138 19.631C92.8245 19.631 92.4423 19.7453 92.1671 19.974C91.902 20.1923 91.7695 20.5353 91.7695 21.0031V21.315C91.7695 21.7827 91.902 22.131 92.1671 22.3597C92.4423 22.578 92.8245 22.6871 93.3138 22.6871Z" fill="#333033"/>
<path d="M100.303 26.6944C99.7322 26.6944 99.3041 26.5489 99.0187 26.2578C98.7435 25.9563 98.6058 25.5405 98.6058 25.0104V15.1559H100.272V25.3067H101.373V26.6944H100.303Z" fill="#333033"/>
<path d="M106.085 26.8815C105.514 26.8815 105.005 26.7827 104.556 26.5852C104.108 26.3877 103.725 26.1071 103.409 25.7432C103.093 25.369 102.849 24.922 102.675 24.4023C102.512 23.8721 102.431 23.2848 102.431 22.6403C102.431 21.9958 102.512 21.4137 102.675 20.894C102.849 20.3638 103.093 19.9168 103.409 19.553C103.725 19.1788 104.108 18.8929 104.556 18.6954C105.005 18.4979 105.514 18.3992 106.085 18.3992C106.666 18.3992 107.176 18.5031 107.614 18.711C108.063 18.9189 108.435 19.21 108.73 19.5842C109.026 19.948 109.245 20.3742 109.388 20.8628C109.541 21.3514 109.617 21.8763 109.617 22.4376V23.0769H104.159V23.342C104.159 23.9657 104.337 24.4802 104.694 24.8857C105.061 25.2807 105.581 25.4782 106.253 25.4782C106.743 25.4782 107.155 25.369 107.492 25.1507C107.828 24.9324 108.114 24.6362 108.348 24.262L109.327 25.2443C109.031 25.7432 108.603 26.1435 108.042 26.4449C107.482 26.736 106.829 26.8815 106.085 26.8815ZM106.085 19.7245C105.8 19.7245 105.535 19.7765 105.29 19.8805C105.056 19.9844 104.852 20.1299 104.678 20.317C104.515 20.5042 104.388 20.7277 104.296 20.9875C104.204 21.2474 104.159 21.5333 104.159 21.8451V21.9543H107.859V21.7983C107.859 21.1746 107.701 20.6757 107.385 20.3015C107.069 19.9168 106.636 19.7245 106.085 19.7245Z" fill="#333033"/>
<path d="M115.198 26.6944V15.8108H119.785C120.774 15.8108 121.538 16.1071 122.078 16.6996C122.619 17.2921 122.889 18.0873 122.889 19.0852C122.889 20.0832 122.619 20.8784 122.078 21.4709C121.538 22.0634 120.774 22.3597 119.785 22.3597H116.926V26.6944H115.198ZM116.926 20.816H119.678C120.116 20.816 120.458 20.7017 120.702 20.473C120.947 20.2339 121.069 19.896 121.069 19.4595V18.711C121.069 18.2744 120.947 17.9418 120.702 17.7131C120.458 17.474 120.116 17.3545 119.678 17.3545H116.926V20.816Z" fill="#333033"/>
<path d="M126.359 26.6944C125.788 26.6944 125.36 26.5489 125.074 26.2578C124.799 25.9563 124.662 25.5405 124.662 25.0104V15.1559H126.328V25.3067H127.429V26.6944H126.359Z" fill="#333033"/>
<path d="M134.847 26.6944C134.409 26.6944 134.073 26.5696 133.838 26.3202C133.604 26.0603 133.461 25.7328 133.41 25.3378H133.334C133.181 25.8472 132.9 26.2318 132.493 26.4917C132.085 26.7516 131.59 26.8815 131.009 26.8815C130.184 26.8815 129.547 26.6632 129.098 26.2266C128.66 25.79 128.441 25.2027 128.441 24.4647C128.441 23.6538 128.726 23.0457 129.297 22.6403C129.878 22.2349 130.724 22.0322 131.835 22.0322H133.272V21.3462C133.272 20.8472 133.14 20.4626 132.875 20.1923C132.61 19.922 132.197 19.7869 131.636 19.7869C131.167 19.7869 130.785 19.8909 130.49 20.0988C130.194 20.3067 129.944 20.5717 129.74 20.894L128.747 19.974C129.012 19.5166 129.384 19.1424 129.863 18.8514C130.342 18.5499 130.969 18.3992 131.743 18.3992C132.773 18.3992 133.563 18.6435 134.113 19.132C134.664 19.6206 134.939 20.3222 134.939 21.237V25.3067H135.78V26.6944H134.847ZM131.483 25.5873C132.003 25.5873 132.431 25.473 132.768 25.2443C133.104 25.0052 133.272 24.6881 133.272 24.2931V23.1237H131.866C130.714 23.1237 130.138 23.4875 130.138 24.2152V24.4958C130.138 24.8597 130.255 25.1351 130.49 25.3222C130.734 25.499 131.065 25.5873 131.483 25.5873Z" fill="#333033"/>
<path d="M142.186 18.5863H143.792L140.443 28.3004C140.352 28.5707 140.245 28.7994 140.122 28.9865C140.01 29.184 139.872 29.3399 139.709 29.4543C139.556 29.579 139.368 29.6674 139.144 29.7193C138.919 29.7817 138.654 29.8129 138.349 29.8129H137.385V28.4252H138.731L139.19 27.053L136.3 18.5863H137.966L139.556 23.3576L140.015 25.1195H140.092L140.596 23.3576L142.186 18.5863Z" fill="#333033"/>
<path d="M146.71 15C147.097 15 147.378 15.0936 147.551 15.2807C147.724 15.4678 147.811 15.7121 147.811 16.0135V16.2786C147.811 16.5281 147.775 16.7879 147.704 17.0582C147.632 17.3181 147.531 17.578 147.398 17.8378C147.265 18.0977 147.107 18.3472 146.924 18.5863C146.741 18.8254 146.537 19.0385 146.312 19.2256H145.12C145.446 18.9033 145.711 18.5863 145.915 18.2744C146.119 17.9626 146.277 17.6247 146.389 17.2609C146.124 17.2089 145.925 17.0946 145.793 16.9179C145.67 16.7412 145.609 16.5333 145.609 16.2942V16.0135C145.609 15.7121 145.696 15.4678 145.869 15.2807C146.042 15.0936 146.323 15 146.71 15Z" fill="#333033"/>
<path d="M153.896 25.3534H153.819C153.646 25.8316 153.361 26.2058 152.963 26.4761C152.576 26.7464 152.117 26.8815 151.587 26.8815C150.578 26.8815 149.798 26.5125 149.247 25.7744C148.697 25.026 148.422 23.9813 148.422 22.6403C148.422 21.2994 148.697 20.2599 149.247 19.5218C149.798 18.7734 150.578 18.3992 151.587 18.3992C152.117 18.3992 152.576 18.5343 152.963 18.8046C153.361 19.0644 153.646 19.4387 153.819 19.9272H153.896V15.1559H155.562V26.6944H153.896V25.3534ZM152.091 25.4158C152.601 25.4158 153.029 25.2911 153.376 25.0416C153.722 24.7817 153.896 24.4439 153.896 24.0281V21.2526C153.896 20.8368 153.722 20.5042 153.376 20.2547C153.029 19.9948 152.601 19.8649 152.091 19.8649C151.51 19.8649 151.047 20.0572 150.7 20.4418C150.353 20.816 150.18 21.315 150.18 21.9387V23.342C150.18 23.9657 150.353 24.4699 150.7 24.8545C151.047 25.2287 151.51 25.4158 152.091 25.4158Z" fill="#333033"/>
<path d="M161.064 26.8815C160.493 26.8815 159.983 26.7827 159.535 26.5852C159.086 26.3877 158.704 26.1071 158.388 25.7432C158.072 25.369 157.827 24.922 157.654 24.4023C157.491 23.8721 157.409 23.2848 157.409 22.6403C157.409 21.9958 157.491 21.4137 157.654 20.894C157.827 20.3638 158.072 19.9168 158.388 19.553C158.704 19.1788 159.086 18.8929 159.535 18.6954C159.983 18.4979 160.493 18.3992 161.064 18.3992C161.645 18.3992 162.154 18.5031 162.593 18.711C163.041 18.9189 163.413 19.21 163.709 19.5842C164.004 19.948 164.224 20.3742 164.366 20.8628C164.519 21.3514 164.596 21.8763 164.596 22.4376V23.0769H159.137V23.342C159.137 23.9657 159.315 24.4802 159.672 24.8857C160.039 25.2807 160.559 25.4782 161.232 25.4782C161.721 25.4782 162.134 25.369 162.47 25.1507C162.807 24.9324 163.092 24.6362 163.327 24.262L164.305 25.2443C164.009 25.7432 163.581 26.1435 163.021 26.4449C162.46 26.736 161.808 26.8815 161.064 26.8815ZM161.064 19.7245C160.778 19.7245 160.513 19.7765 160.269 19.8805C160.034 19.9844 159.83 20.1299 159.657 20.317C159.494 20.5042 159.366 20.7277 159.275 20.9875C159.183 21.2474 159.137 21.5333 159.137 21.8451V21.9543H162.837V21.7983C162.837 21.1746 162.679 20.6757 162.363 20.3015C162.047 19.9168 161.614 19.7245 161.064 19.7245Z" fill="#333033"/>
<path d="M166.441 26.6944V18.5863H168.107V19.9272H168.184C168.357 19.4906 168.617 19.1268 168.963 18.8358C169.32 18.5447 169.804 18.3992 170.416 18.3992C171.231 18.3992 171.863 18.6746 172.312 19.2256C172.771 19.7661 173 20.5405 173 21.5489V26.6944H171.333V21.7672C171.333 20.499 170.834 19.8649 169.835 19.8649C169.621 19.8649 169.407 19.896 169.193 19.9584C168.989 20.0104 168.805 20.0936 168.642 20.2079C168.479 20.3222 168.347 20.4678 168.245 20.6445C168.153 20.8212 168.107 21.0291 168.107 21.2682V26.6944H166.441Z" fill="#333033"/>
<defs>
<linearGradient id="paint0_linear" x1="22.1854" y1="10.6248" x2="22.1854" y2="51.3939" gradientUnits="userSpaceOnUse">
<stop stop-color="#2079B0"/>
<stop offset="0.2863" stop-color="#4A93B8"/>
<stop offset="0.767" stop-color="#83BEBF"/>
<stop offset="1" stop-color="#97CFBF"/>
</linearGradient>
<linearGradient id="paint1_linear" x1="11.9875" y1="20.8241" x2="37.7171" y2="20.8241" gradientUnits="userSpaceOnUse">
<stop stop-color="#5ABCAB"/>
<stop offset="1" stop-color="#E6E99A"/>
</linearGradient>
<linearGradient id="paint2_linear" x1="24.8521" y1="31.0275" x2="24.8521" y2="51.3979" gradientUnits="userSpaceOnUse">
<stop stop-color="#E53432"/>
<stop offset="0.1668" stop-color="#D73948"/>
<stop offset="0.5748" stop-color="#B33F72"/>
<stop offset="0.8619" stop-color="#9A4189"/>
<stop offset="1" stop-color="#904192"/>
</linearGradient>
<linearGradient id="paint3_linear" x1="39.9167" y1="25.7039" x2="39.9167" y2="36.35" gradientUnits="userSpaceOnUse">
<stop stop-color="#F18779"/>
<stop offset="0.1194" stop-color="#F2917A"/>
<stop offset="0.7128" stop-color="#FABC77"/>
<stop offset="1" stop-color="#FDCB72"/>
</linearGradient>
</defs>
</svg>
