<svg width="27" height="25" viewBox="0 0 27 25" fill="none" xmlns="http://www.w3.org/2000/svg">
<path d="M26.2283 15.3636V24.5454C26.2283 24.8181 26.0465 24.9999 25.7738 24.9999H20.9556C20.6829 24.9999 20.5011 24.8181 20.5011 24.5454V15.909C20.5011 13.6363 19.6829 12.0908 17.6829 12.0908C16.1374 12.0908 15.2283 13.0908 14.7738 14.1817C14.592 14.5454 14.592 14.9999 14.592 15.5454V24.5454C14.592 24.8181 14.4102 24.9999 14.1374 24.9999H9.31925C9.04652 24.9999 8.8647 24.8181 8.8647 24.5454C8.8647 22.2727 8.95561 11.1817 8.8647 8.54538C9.13743 8.36356 9.31925 8.18174 9.50107 8.18174H14.2283C14.5011 8.18174 14.6829 8.36356 14.6829 8.63629V10.6363C14.6829 10.6363 14.6829 10.6363 14.6829 10.7272V10.6363C15.4102 9.45447 16.7738 7.81811 19.7738 7.81811C23.4102 7.7272 26.2283 10.1817 26.2283 15.3636ZM0.864702 24.9999H5.68289C5.95561 24.9999 6.13743 24.8181 6.13743 24.5454V8.54538C6.04652 8.36356 5.8647 8.18174 5.59198 8.18174H0.864702C0.591974 8.18174 0.410156 8.36356 0.410156 8.54538V24.5454C0.410156 24.8181 0.591974 24.9999 0.864702 24.9999Z" fill="#333033"/>
<path d="M3.04688 6C4.70373 6 6.04688 4.65686 6.04688 3C6.04688 1.34315 4.70373 0 3.04688 0C1.39002 0 0.046875 1.34315 0.046875 3C0.046875 4.65686 1.39002 6 3.04688 6Z" fill="#333033"/>
</svg>
