<svg width="24" height="24" viewBox="0 0 24 24" fill="none" xmlns="http://www.w3.org/2000/svg">
<path d="M14.2937 4.23475C14.6186 3.87176 15.0043 3.58382 15.4288 3.38738C15.8533 3.19093 16.3083 3.08982 16.7677 3.08982C17.2272 3.08982 17.6822 3.19093 18.1067 3.38738C18.5312 3.58382 18.9169 3.87176 19.2418 4.23475C19.5667 4.59773 19.8244 5.02866 20.0003 5.50292C20.1761 5.97719 20.2666 6.4855 20.2666 6.99884C20.2666 7.51218 20.1761 8.02049 20.0003 8.49476C19.8244 8.96902 19.5667 9.39995 19.2418 9.76294L16.018 13.3646C15.6682 13.7556 15.2481 14.0592 14.7854 14.2554C14.3228 14.4516 13.8282 14.5359 13.3343 14.5028C12.8403 14.4696 12.3583 14.3198 11.92 14.0632C11.4817 13.8066 11.0971 13.449 10.7917 13.0141C10.6823 12.8587 10.5221 12.7582 10.3464 12.7348C10.1708 12.7113 9.99392 12.7668 9.85484 12.889C9.71575 13.0112 9.62582 13.1901 9.60482 13.3864C9.58381 13.5827 9.63346 13.7803 9.74284 13.9356C10.1648 14.5361 10.696 15.0297 11.3013 15.3838C11.9066 15.738 12.5723 15.9448 13.2544 15.9904C13.9364 16.036 14.6194 15.9194 15.2582 15.6484C15.897 15.3774 16.4771 14.9582 16.9602 14.4183L20.1849 10.8155C20.6335 10.3143 20.9895 9.71915 21.2323 9.0642C21.4751 8.40924 21.6001 7.70726 21.6001 6.99834C21.6001 6.28942 21.4751 5.58745 21.2323 4.93249C20.9895 4.27753 20.6335 3.68242 20.1849 3.18114C19.7362 2.67986 19.2035 2.28222 18.6173 2.01093C18.031 1.73964 17.4027 1.60001 16.7682 1.60001C16.1337 1.60001 15.5053 1.73964 14.9191 2.01093C14.3329 2.28222 13.8002 2.67986 13.3515 3.18114L10.685 6.16023C10.5635 6.30063 10.4962 6.48872 10.4977 6.684C10.4991 6.87928 10.5691 7.06612 10.6927 7.20427C10.8162 7.34242 10.9834 7.42084 11.1582 7.42263C11.333 7.42441 11.5014 7.34943 11.6272 7.21383L14.2937 4.23475Z" fill="#0087B2"/>
<path d="M7.98199 11.2889C8.33184 10.9197 8.75195 10.633 9.21457 10.4477C9.67719 10.2624 10.1718 10.1828 10.6657 10.214C11.1597 10.2453 11.6417 10.3868 12.08 10.6292C12.5183 10.8715 12.9029 11.2092 13.2083 11.62C13.2625 11.6927 13.3297 11.7534 13.4061 11.7986C13.4825 11.8439 13.5666 11.8728 13.6536 11.8838C13.7405 11.8948 13.8287 11.8876 13.9131 11.8626C13.9974 11.8376 14.0763 11.7953 14.1452 11.7382C14.214 11.681 14.2716 11.6101 14.3145 11.5295C14.3574 11.4489 14.3848 11.3602 14.3952 11.2684C14.4056 11.1766 14.3987 11.0835 14.3751 10.9945C14.3514 10.9055 14.3113 10.8223 14.2572 10.7497C13.8352 10.1826 13.304 9.71643 12.6987 9.38192C12.0934 9.04741 11.4277 8.85217 10.7456 8.8091C10.0636 8.76602 9.38058 8.87608 8.74179 9.13203C8.10299 9.38797 7.5229 9.78396 7.03983 10.2939L3.81514 13.6964C3.36645 14.1699 3.01054 14.7319 2.76771 15.3505C2.52488 15.969 2.3999 16.632 2.3999 17.3016C2.3999 17.9711 2.52488 18.6341 2.76771 19.2526C3.01054 19.8712 3.36645 20.4333 3.81514 20.9067C4.26382 21.3801 4.79649 21.7557 5.38272 22.0119C5.96896 22.2681 6.59728 22.4 7.23181 22.4C7.86635 22.4 8.49467 22.2681 9.08091 22.0119C9.66714 21.7557 10.1998 21.3801 10.6485 20.9067L13.315 18.0931C13.3805 18.0287 13.433 17.9511 13.4695 17.8648C13.5059 17.7785 13.5255 17.6854 13.5271 17.5909C13.5286 17.4965 13.5122 17.4027 13.4786 17.3151C13.4451 17.2275 13.3952 17.1479 13.3319 17.0811C13.2686 17.0143 13.1932 16.9617 13.1102 16.9263C13.0272 16.8909 12.9383 16.8735 12.8488 16.8752C12.7593 16.8769 12.671 16.8976 12.5892 16.936C12.5075 16.9744 12.4339 17.0299 12.3728 17.099L9.70633 19.9126C9.38137 20.2554 8.9956 20.5273 8.57105 20.7128C8.14649 20.8983 7.69146 20.9938 7.23194 20.9937C6.3039 20.9937 5.41391 20.6046 4.75774 19.9121C4.43285 19.5692 4.17513 19.1622 3.99932 18.7142C3.82351 18.2662 3.73304 17.7861 3.73308 17.3012C3.73317 16.322 4.10191 15.3829 4.75819 14.6906L7.98199 11.2889Z" fill="#0087B2"/>
</svg>
