<svg width="31" height="25" viewBox="0 0 31 25" fill="none" xmlns="http://www.w3.org/2000/svg">
<path d="M30.5855 2.9499C29.6219 3.42569 28.5619 3.61601 27.502 3.80633C27.9838 3.80633 28.7547 2.85475 29.0437 2.56927C29.5255 1.99832 29.911 1.42737 30.1037 0.761265C30.1037 0.666107 30.1037 0.666107 30.1037 0.570949C30.0073 0.570949 30.0073 0.570949 29.911 0.570949C28.7547 1.23706 27.502 1.61769 26.2493 1.99832C26.153 1.99832 26.0566 1.99832 25.9603 1.90316C25.8639 1.80801 25.7676 1.71285 25.6712 1.61769C25.093 1.1419 24.5149 0.761265 23.9367 0.570949C22.9732 0.0951582 22.0096 0 21.1424 0C20.2751 0.0951582 19.3116 0.285475 18.5407 0.761265C17.7698 1.1419 16.999 1.71285 16.4208 2.47411C15.8427 3.23538 15.3609 3.99664 15.1681 4.94822C14.9754 5.80465 14.9754 6.66107 15.0718 7.5175C15.0718 7.70781 15.0718 7.70781 14.9754 7.70781C9.96481 6.94655 5.72505 5.13854 2.35251 1.33221C2.15979 1.1419 2.06343 1.1419 1.96708 1.33221C0.521704 3.52085 1.19621 7.0417 3.02702 8.84971C3.31609 9.04003 3.60517 9.23034 3.89424 9.42066C3.79788 9.42066 2.54523 9.3255 1.48529 8.75455C1.29257 8.65939 1.29257 8.75455 1.29257 8.84971C1.29257 9.04003 1.29257 9.3255 1.29257 9.61098C1.58164 11.7996 3.12338 13.8931 5.24326 14.7495C5.53233 14.8447 5.8214 14.9398 6.01412 15.035C5.53233 15.1301 5.05054 15.2253 3.60517 15.1301C3.41245 15.1301 3.31609 15.2253 3.41245 15.3205C4.47239 18.1752 6.78499 19.0316 8.42307 19.5074C8.61579 19.5074 8.90487 19.5074 9.09758 19.6026C8.51943 20.459 6.59227 21.1251 5.62869 21.4106C3.9906 21.9815 2.15979 22.267 0.425346 22.0767C0.136271 22.0767 0.0399129 22.0767 0.0399129 22.0767C-0.0564453 22.0767 0.0399129 22.1719 0.136271 22.267C0.521704 22.4573 0.810779 22.7428 1.19621 22.9331C2.35251 23.5041 3.50881 23.9799 4.66511 24.2653C10.9284 25.9782 17.9625 24.7411 22.6841 20.0784C26.3457 16.4624 27.6947 11.419 27.6947 6.47076C27.6947 6.28044 27.8874 6.18528 28.0801 6.09012C29.0437 5.42402 29.8146 4.56759 30.4891 3.61601C30.6818 3.42569 30.6818 3.23538 30.6818 3.14022C30.6818 2.9499 30.6818 2.9499 30.5855 2.9499Z" fill="#333033"/>
</svg>
