<svg width="29" height="25" viewBox="0 0 29 25" fill="none" xmlns="http://www.w3.org/2000/svg">
<path d="M28.9858 5.78328C28.8558 8.59653 26.8844 12.4485 23.0717 17.3393C19.1289 22.4464 15.7927 25 13.0631 25C11.3734 25 9.94359 23.4419 8.77376 20.3257L6.43409 11.756C5.56755 8.63982 4.63601 7.08171 3.63948 7.08171C3.42285 7.08171 2.66462 7.53616 1.36481 8.44506L0 6.69218C1.42979 5.43703 2.83792 4.18188 4.22438 2.92674C6.13076 1.28207 7.56055 0.416455 8.51375 0.329888C10.7668 0.113488 12.1532 1.64996 12.6731 4.9393C13.2364 8.48834 13.6263 10.6957 13.843 11.5613C14.4929 14.5044 15.2078 15.976 15.9876 15.976C16.5942 15.976 17.5041 15.0238 18.7173 13.1194C19.9304 11.2151 20.5803 9.76515 20.667 8.76968C20.8403 7.12501 20.1904 6.30268 18.7173 6.30268C18.024 6.30268 17.3091 6.45416 16.5726 6.75713C18.0024 2.12607 20.732 -0.124538 24.7614 0.00531236C27.7509 0.0918792 29.1591 2.01788 28.9858 5.78333L28.9858 5.78328Z" fill="#333033"/>
</svg>
