<svg xmlns="http://www.w3.org/2000/svg" width="150" height="35" viewBox="0 0 150 35">
    <g fill="none" fill-rule="evenodd">
        <path fill="#303030" d="M22.446 33.411c.055.164.09.294.103.39.014.096-.005.167-.055.215-.05.048-.139.078-.266.089a11.008 11.008 0 0 1-1.07.007 1.343 1.343 0 0 1-.298-.041.27.27 0 0 1-.143-.086.468.468 0 0 1-.069-.143l-.594-1.778H16.73l-.56 1.73a.551.551 0 0 1-.072.16.293.293 0 0 1-.143.103c-.067.025-.16.042-.28.051-.121.01-.28.014-.476.014a4.55 4.55 0 0 1-.492-.02c-.118-.014-.2-.047-.246-.1-.046-.052-.062-.126-.048-.222.014-.095.048-.223.103-.383l2.727-7.847a.688.688 0 0 1 .096-.188.339.339 0 0 1 .174-.11c.08-.025.19-.04.332-.047.141-.007.328-.01.56-.01.27 0 .483.003.643.01.16.006.284.022.372.047a.355.355 0 0 1 .192.113c.039.05.072.119.099.205l2.734 7.841zm-4.06-6.487h-.007l-1.251 3.76h2.509l-1.251-3.76zm12.446 6.925c0 .05-.009.092-.027.126-.018.034-.062.063-.13.086a1.29 1.29 0 0 1-.3.047c-.133.01-.313.014-.54.014-.192 0-.345-.004-.459-.014a1.014 1.014 0 0 1-.27-.05.293.293 0 0 1-.14-.097.535.535 0 0 1-.068-.14l-.793-1.975a8.333 8.333 0 0 0-.28-.595 1.897 1.897 0 0 0-.305-.434 1.11 1.11 0 0 0-.386-.263 1.337 1.337 0 0 0-.506-.09h-.56v3.371a.19.19 0 0 1-.045.123.312.312 0 0 1-.147.089c-.068.023-.16.04-.273.055a3.8 3.8 0 0 1-.438.02c-.173 0-.318-.007-.434-.02a1.44 1.44 0 0 1-.277-.055.288.288 0 0 1-.143-.089.2.2 0 0 1-.041-.123v-8.032c0-.2.051-.345.154-.434a.559.559 0 0 1 .379-.134h2.29a8.27 8.27 0 0 1 .984.048c.356.05.676.137.96.26.286.123.527.284.726.482.198.198.35.433.454.704.105.271.157.582.157.933 0 .296-.037.566-.112.81a2.077 2.077 0 0 1-.872 1.152 2.923 2.923 0 0 1-.731.342 1.967 1.967 0 0 1 .7.564c.103.13.2.278.29.444.092.166.18.354.267.564l.745 1.743c.069.173.114.3.137.38.023.08.034.142.034.188zm-2.317-6.002c0-.292-.066-.538-.198-.739-.132-.2-.349-.341-.65-.423a2.491 2.491 0 0 0-.31-.055 4.368 4.368 0 0 0-.483-.02h-.806v2.508h.916c.255 0 .478-.03.67-.092.191-.062.35-.148.478-.26.128-.112.223-.245.287-.4.064-.155.096-.328.096-.52zm6.028 5.988a.19.19 0 0 1-.045.123.312.312 0 0 1-.147.089c-.068.023-.16.04-.273.055a3.8 3.8 0 0 1-.438.02c-.173 0-.318-.007-.434-.02a1.44 1.44 0 0 1-.277-.055.312.312 0 0 1-.147-.089.19.19 0 0 1-.044-.123v-8.354a.19.19 0 0 1 .044-.123.313.313 0 0 1 .15-.088c.071-.023.164-.041.278-.055.114-.014.257-.02.43-.02a3.8 3.8 0 0 1 .438.02c.114.014.205.032.273.055a.312.312 0 0 1 .147.088.19.19 0 0 1 .045.123v8.354zm8.974-.02a.24.24 0 0 1-.038.133c-.025.039-.073.07-.144.095-.07.026-.167.045-.29.059a4.34 4.34 0 0 1-.465.02c-.296 0-.51-.011-.64-.034a.633.633 0 0 1-.28-.103.487.487 0 0 1-.133-.164l-2.673-4.197v4.197a.21.21 0 0 1-.04.13.307.307 0 0 1-.144.092c-.068.026-.16.045-.274.059a3.8 3.8 0 0 1-.437.02c-.173 0-.318-.007-.434-.02a1.258 1.258 0 0 1-.277-.059.333.333 0 0 1-.147-.092.2.2 0 0 1-.044-.13v-8.333a.2.2 0 0 1 .044-.13.312.312 0 0 1 .147-.088 1.44 1.44 0 0 1 .277-.055c.116-.014.26-.02.434-.02a3.8 3.8 0 0 1 .437.02c.114.014.206.032.274.055a.288.288 0 0 1 .143.088.21.21 0 0 1 .041.13v3.767l2.591-3.76a.503.503 0 0 1 .116-.147.503.503 0 0 1 .178-.092c.073-.023.167-.039.28-.048a5.686 5.686 0 0 1 .89.007c.118.014.212.033.283.058.07.025.12.056.147.092a.2.2 0 0 1 .04.123c0 .078-.02.158-.06.24a4.853 4.853 0 0 1-.233.39l-2.427 3.178 2.646 3.999c.1.187.16.311.18.373.021.061.032.11.032.146zm9.028-.404c.055.164.09.294.103.39.013.096-.005.167-.055.215-.05.048-.139.078-.267.089a11.008 11.008 0 0 1-1.07.007 1.343 1.343 0 0 1-.297-.041.27.27 0 0 1-.143-.086.468.468 0 0 1-.069-.143l-.594-1.778H46.83l-.56 1.73a.551.551 0 0 1-.072.16.293.293 0 0 1-.144.103c-.066.025-.159.042-.28.051-.12.01-.279.014-.475.014a4.55 4.55 0 0 1-.492-.02c-.119-.014-.2-.047-.246-.1-.046-.052-.062-.126-.048-.222.014-.095.048-.223.103-.383l2.727-7.847a.688.688 0 0 1 .096-.188.339.339 0 0 1 .174-.11c.08-.025.19-.04.332-.047.14-.007.328-.01.56-.01.269 0 .483.003.643.01.16.006.283.022.372.047a.355.355 0 0 1 .192.113c.038.05.071.119.099.205l2.734 7.841zm-4.06-6.487h-.007l-1.251 3.76h2.509l-1.251-3.76zm13.178 6.528a.683.683 0 0 1-.055.28.568.568 0 0 1-.366.325.895.895 0 0 1-.256.038h-.766c-.16 0-.297-.016-.413-.048a.823.823 0 0 1-.322-.174 1.527 1.527 0 0 1-.283-.342 6.428 6.428 0 0 1-.308-.557l-2.201-4.136a20.246 20.246 0 0 1-.39-.796 14.42 14.42 0 0 1-.355-.831h-.014a35.658 35.658 0 0 1 .055 1.99v4.627a.212.212 0 0 1-.038.123.28.28 0 0 1-.13.092 1.036 1.036 0 0 1-.25.059c-.104.013-.238.02-.402.02-.16 0-.292-.007-.397-.02a.978.978 0 0 1-.246-.059.257.257 0 0 1-.123-.092.227.227 0 0 1-.034-.123v-7.95c0-.214.062-.375.188-.482a.686.686 0 0 1 .461-.16h.964c.173 0 .319.014.438.044.118.03.224.078.317.147.094.068.182.163.264.283.082.121.166.27.253.448l1.722 3.234c.1.196.2.388.298.577.098.19.192.379.283.568l.267.557c.086.182.17.364.253.547h.007a43.285 43.285 0 0 1-.041-1.99v-4.149a.2.2 0 0 1 .04-.123.329.329 0 0 1 .137-.096.903.903 0 0 1 .253-.058c.105-.011.24-.017.404-.017.155 0 .284.006.39.017.104.012.185.03.242.058.057.028.097.06.12.096a.227.227 0 0 1 .034.123v7.95zm7.374-.123c0 .137-.006.252-.017.345-.011.094-.029.171-.051.233a.3.3 0 0 1-.086.133.186.186 0 0 1-.12.041H64.71a.559.559 0 0 1-.38-.133c-.102-.09-.153-.234-.153-.434V25.48a.19.19 0 0 1 .044-.123.312.312 0 0 1 .147-.088 1.44 1.44 0 0 1 .277-.055c.116-.014.26-.02.434-.02a3.8 3.8 0 0 1 .438.02c.113.014.205.032.273.055a.312.312 0 0 1 .147.088.19.19 0 0 1 .044.123v7.117h2.783c.045 0 .085.012.12.037a.274.274 0 0 1 .085.123c.022.057.04.132.05.226.012.093.018.208.018.345zm3.45.506a.19.19 0 0 1-.044.123.312.312 0 0 1-.147.089c-.068.023-.16.04-.273.055a3.8 3.8 0 0 1-.438.02c-.173 0-.318-.007-.434-.02a1.44 1.44 0 0 1-.277-.055.312.312 0 0 1-.147-.089.19.19 0 0 1-.044-.123v-8.354a.19.19 0 0 1 .044-.123.313.313 0 0 1 .15-.088c.071-.023.164-.041.278-.055.113-.014.257-.02.43-.02a3.8 3.8 0 0 1 .438.02c.114.014.205.032.273.055a.312.312 0 0 1 .147.088.19.19 0 0 1 .045.123v8.354zm13.17 0a.19.19 0 0 1-.044.123.312.312 0 0 1-.147.089c-.069.023-.16.04-.274.055-.114.013-.257.02-.43.02-.178 0-.325-.007-.441-.02a1.362 1.362 0 0 1-.274-.055.31.31 0 0 1-.143-.089.19.19 0 0 1-.045-.123V30.26h-3.308v3.575a.2.2 0 0 1-.041.123.288.288 0 0 1-.144.089c-.068.023-.16.04-.273.055a3.8 3.8 0 0 1-.438.02c-.173 0-.318-.007-.434-.02a1.44 1.44 0 0 1-.277-.055.312.312 0 0 1-.147-.089.19.19 0 0 1-.044-.123v-8.354a.19.19 0 0 1 .044-.123.312.312 0 0 1 .147-.088 1.44 1.44 0 0 1 .277-.055c.116-.014.261-.02.434-.02a3.8 3.8 0 0 1 .438.02c.114.014.205.032.273.055a.288.288 0 0 1 .144.088.2.2 0 0 1 .04.123v3.248h3.31V25.48a.19.19 0 0 1 .044-.123.31.31 0 0 1 .143-.088c.066-.023.157-.041.274-.055.116-.014.263-.02.44-.02.174 0 .317.006.431.02.114.014.205.032.274.055a.312.312 0 0 1 .147.088.19.19 0 0 1 .044.123v8.354zm10.471-4.28c0 .734-.091 1.39-.273 1.97a3.968 3.968 0 0 1-.814 1.473 3.5 3.5 0 0 1-1.336.922c-.531.212-1.145.318-1.842.318-.689 0-1.29-.09-1.802-.27a3.123 3.123 0 0 1-1.282-.823c-.341-.37-.598-.839-.769-1.409-.17-.57-.256-1.244-.256-2.023 0-.716.091-1.36.274-1.931a3.944 3.944 0 0 1 .813-1.46c.36-.4.806-.708 1.336-.923.531-.214 1.148-.32 1.85-.32.67 0 1.26.088 1.773.266a3.12 3.12 0 0 1 1.286.82c.344.37.603.835.779 1.398.175.563.263 1.227.263 1.993zm-1.887.096a6.76 6.76 0 0 0-.109-1.268 2.726 2.726 0 0 0-.373-.977 1.778 1.778 0 0 0-.7-.63c-.292-.147-.656-.221-1.094-.221-.442 0-.811.083-1.107.25a2.037 2.037 0 0 0-.718.666 2.754 2.754 0 0 0-.386.974 5.934 5.934 0 0 0-.113 1.179c0 .483.036.917.11 1.302.072.385.195.715.368.988.174.274.406.482.698.626.291.143.658.215 1.1.215.442 0 .811-.082 1.108-.246.296-.164.535-.388.717-.67.183-.283.311-.612.387-.988.075-.376.112-.776.112-1.2zm8.844 3.678c0 .137-.005.252-.017.345-.011.094-.028.171-.05.233a.3.3 0 0 1-.086.133.186.186 0 0 1-.12.041h-4.054a.559.559 0 0 1-.38-.133c-.102-.09-.153-.234-.153-.434V25.48a.19.19 0 0 1 .045-.123.312.312 0 0 1 .147-.088 1.44 1.44 0 0 1 .276-.055c.117-.014.261-.02.434-.02a3.8 3.8 0 0 1 .438.02c.114.014.205.032.273.055a.312.312 0 0 1 .147.088.19.19 0 0 1 .045.123v7.117h2.782c.046 0 .085.012.12.037a.274.274 0 0 1 .085.123c.023.057.04.132.051.226.012.093.017.208.017.345zm8.995-3.8c0 .81-.106 1.504-.318 2.08-.212.577-.516 1.048-.913 1.413a3.66 3.66 0 0 1-1.445.803c-.568.17-1.243.256-2.027.256h-2.113a.559.559 0 0 1-.379-.133c-.102-.09-.154-.234-.154-.434v-7.711c0-.2.052-.345.154-.434a.559.559 0 0 1 .38-.134h2.269c.788 0 1.457.093 2.006.277.55.185 1.012.458 1.388.82.376.363.662.81.858 1.344.196.533.294 1.15.294 1.852zm-1.86.06c0-.418-.048-.808-.146-1.168a2.489 2.489 0 0 0-.472-.937 2.187 2.187 0 0 0-.834-.618c-.34-.148-.785-.222-1.337-.222h-.909v6.015h.937c.492 0 .907-.064 1.244-.191a2.08 2.08 0 0 0 .844-.578c.226-.257.394-.577.506-.96.112-.383.168-.83.168-1.34zm5.727 4.246a.19.19 0 0 1-.044.123.312.312 0 0 1-.147.089c-.068.023-.16.04-.273.055a3.8 3.8 0 0 1-.438.02c-.173 0-.318-.007-.434-.02a1.44 1.44 0 0 1-.277-.055.312.312 0 0 1-.147-.089.19.19 0 0 1-.044-.123v-8.354a.19.19 0 0 1 .044-.123.313.313 0 0 1 .15-.088c.071-.023.163-.041.277-.055.114-.014.258-.02.431-.02a3.8 3.8 0 0 1 .438.02c.114.014.205.032.273.055a.312.312 0 0 1 .147.088.19.19 0 0 1 .044.123v8.354zm.055-10.24c0 .323-.067.55-.202.68-.134.13-.383.195-.748.195s-.613-.063-.745-.188c-.132-.126-.198-.343-.198-.653 0-.328.068-.556.205-.684.136-.127.387-.191.752-.191.364 0 .611.061.741.185.13.123.195.341.195.656zm9.753 9.857a.683.683 0 0 1-.054.28.568.568 0 0 1-.366.325.895.895 0 0 1-.256.038h-.766c-.16 0-.297-.016-.414-.048a.823.823 0 0 1-.32-.174 1.527 1.527 0 0 1-.285-.342 6.429 6.429 0 0 1-.307-.557l-2.201-4.136a20.247 20.247 0 0 1-.39-.796 14.42 14.42 0 0 1-.355-.831h-.014a35.657 35.657 0 0 1 .055 1.99v4.627a.212.212 0 0 1-.038.123.28.28 0 0 1-.13.092 1.036 1.036 0 0 1-.25.059c-.104.013-.239.02-.403.02-.16 0-.291-.007-.396-.02a.978.978 0 0 1-.246-.059.257.257 0 0 1-.123-.092.227.227 0 0 1-.035-.123v-7.95c0-.214.063-.375.188-.482a.686.686 0 0 1 .462-.16h.964c.173 0 .319.014.437.044.119.03.225.078.318.147.093.068.181.163.263.283.082.121.167.27.253.448l1.723 3.234.297.577c.098.19.193.379.284.568.091.189.18.374.266.557.087.182.171.364.253.547h.007a43.285 43.285 0 0 1-.04-1.99v-4.149a.2.2 0 0 1 .04-.123.329.329 0 0 1 .137-.096.903.903 0 0 1 .253-.058c.105-.011.24-.017.403-.017.155 0 .285.006.39.017.105.012.186.03.243.058.057.028.096.06.12.096a.227.227 0 0 1 .033.123v7.95zm9.61-6.843c0 .133-.006.246-.017.342a1.072 1.072 0 0 1-.048.23.258.258 0 0 1-.075.119.169.169 0 0 1-.106.034c-.06 0-.155-.041-.287-.123a4.266 4.266 0 0 0-.527-.267 5.66 5.66 0 0 0-.782-.266 4.062 4.062 0 0 0-1.056-.123c-.429 0-.816.074-1.163.222a2.524 2.524 0 0 0-.888.629 2.802 2.802 0 0 0-.568.977c-.132.38-.198.801-.198 1.262 0 .505.067.95.202 1.336.134.385.322.708.564.967.241.26.532.456.871.588.34.132.715.198 1.125.198.2 0 .399-.022.595-.068.196-.046.378-.114.547-.205v-2.05h-1.675c-.082 0-.146-.052-.192-.155-.045-.102-.068-.276-.068-.523 0-.127.006-.234.017-.32a.794.794 0 0 1 .051-.21.293.293 0 0 1 .082-.116.172.172 0 0 1 .11-.037h2.987a.422.422 0 0 1 .345.15c.044.05.077.11.1.181a.79.79 0 0 1 .034.243v3.52a.84.84 0 0 1-.072.36c-.048.102-.146.183-.294.242a7.607 7.607 0 0 1-2.663.485c-.706 0-1.338-.1-1.897-.304a3.839 3.839 0 0 1-1.418-.882 3.83 3.83 0 0 1-.889-1.408c-.205-.553-.308-1.181-.308-1.883 0-.725.11-1.375.329-1.952a4.132 4.132 0 0 1 .93-1.47 4.02 4.02 0 0 1 1.452-.926 5.336 5.336 0 0 1 1.897-.321c.383 0 .731.026 1.046.079.314.052.589.116.824.191.234.075.43.156.584.243.155.086.263.161.325.225a.568.568 0 0 1 .133.27c.027.116.041.289.041.516z"/>
        <path fill="#C11F1F" d="M0 15.81C12.378 6.519 41.298 0 75 0s62.622 6.518 75 15.81C132.885 9.525 105.66 5.459 75 5.459c-30.66 0-57.885 4.066-75 10.353z"/>
    </g>
</svg>
