<?xml version="1.0" encoding="UTF-8"?>
<svg width="16px" height="16px" viewBox="0 0 16 16" version="1.1" xmlns="http://www.w3.org/2000/svg" xmlns:xlink="http://www.w3.org/1999/xlink">
    <!-- Generator: sketchtool 45.2 (43514) - http://www.bohemiancoding.com/sketch -->
    <title>818438EC-0BF9-4E2B-932B-377B55B44478</title>
    <desc>Created with sketchtool.</desc>
    <defs>
        <radialGradient cx="29.0083849%" cy="99.7910355%" fx="29.0083849%" fy="99.7910355%" r="100.892117%" gradientTransform="translate(0.290084,0.997910),scale(1.000000,0.996154),translate(-0.290084,-0.997910)" id="radialGradient-1">
            <stop stop-color="#FFD776" offset="0%"></stop>
            <stop stop-color="#F3A554" offset="24.63%"></stop>
            <stop stop-color="#F15C3C" offset="37.93%"></stop>
            <stop stop-color="#D94867" offset="53.94%"></stop>
            <stop stop-color="#C32F87" offset="69.95%"></stop>
            <stop stop-color="#7D63A7" offset="91.22%"></stop>
            <stop stop-color="#5C6CB3" offset="98.52%"></stop>
        </radialGradient>
        <radialGradient cx="29.0632331%" cy="99.751203%" fx="29.0632331%" fy="99.751203%" r="100.814135%" gradientTransform="translate(0.290632,0.997512),scale(1.000000,0.996154),translate(-0.290632,-0.997512)" id="radialGradient-2">
            <stop stop-color="#FFD776" offset="0%"></stop>
            <stop stop-color="#F3A554" offset="24.63%"></stop>
            <stop stop-color="#F15C3C" offset="37.93%"></stop>
            <stop stop-color="#D94867" offset="60.7%"></stop>
            <stop stop-color="#C32F87" offset="83.46%"></stop>
            <stop stop-color="#7D63A7" offset="95.77%"></stop>
            <stop stop-color="#5C6CB3" offset="100%"></stop>
        </radialGradient>
        <radialGradient cx="29.1041935%" cy="99.7754839%" fx="29.1041935%" fy="99.7754839%" r="101.074194%" gradientTransform="translate(0.291042,0.997755),scale(1.000000,0.996154),translate(-0.291042,-0.997755)" id="radialGradient-3">
            <stop stop-color="#5F6DB3" offset="0%"></stop>
            <stop stop-color="#5C6CB3" offset="100%"></stop>
        </radialGradient>
    </defs>
    <g id="Ikonlar" stroke="none" stroke-width="1" fill="none" fill-rule="evenodd">
        <g id="Sayfa-01" transform="translate(-1021.000000, -1281.000000)" fill-rule="nonzero">
            <g id="if_Instagram_Color_1435162" transform="translate(1021.000000, 1281.000000)">
                <path d="M15.5507692,2.76138996 C15.3476923,2.23629344 15.0769231,1.79150579 14.6338462,1.34671815 C14.1907692,0.901930502 13.7476923,0.63011583 13.2246154,0.426254826 C12.72,0.228571429 12.1353846,0.0926640927 11.2923077,0.0555984556 C10.4430769,0.0185328185 10.1723077,0.00617760618 8.00615385,0.00617760618 C5.84,0.00617760618 5.56923077,0.0123552124 4.72,0.0555984556 C3.87076923,0.0926640927 3.29230769,0.228571429 2.78769231,0.426254826 C2.26461538,0.63011583 1.82153846,0.901930502 1.37846154,1.34671815 C0.935384615,1.79150579 0.664615385,2.23629344 0.461538462,2.76138996 C0.264615385,3.26795367 0.129230769,3.85482625 0.0923076923,4.7011583 C0.0553846154,5.55366795 0.0430769231,5.82548263 0.0430769231,8 C0.0430769231,10.1745174 0.0492307692,10.446332 0.0923076923,11.2988417 C0.129230769,12.1513514 0.264615385,12.7320463 0.461538462,13.23861 C0.664615385,13.7637066 0.935384615,14.2084942 1.37846154,14.6532819 C1.82153846,15.0980695 2.26461538,15.3698842 2.78769231,15.5737452 C3.29230769,15.7714286 3.87692308,15.9073359 4.72,15.9444015 C5.56923077,15.9814672 5.84,15.9938224 8.00615385,15.9938224 C10.1723077,15.9938224 10.4430769,15.9876448 11.2923077,15.9444015 C12.1415385,15.9073359 12.72,15.7714286 13.2246154,15.5737452 C13.7476923,15.3698842 14.1907692,15.0980695 14.6338462,14.6532819 C15.0769231,14.2084942 15.3476923,13.7637066 15.5507692,13.23861 C15.7476923,12.7320463 15.8830769,12.1451737 15.92,11.2988417 C15.9569231,10.446332 15.9692308,10.1745174 15.9692308,8 C15.9692308,5.82548263 15.9630769,5.55366795 15.92,4.7011583 C15.8830769,3.84864865 15.7476923,3.26795367 15.5507692,2.76138996 Z M14.4861538,11.230888 C14.4492308,12.0092664 14.32,12.4355212 14.2092308,12.7135135 C14.0676923,13.0841699 13.8892308,13.3559846 13.6123077,13.6339768 C13.3353846,13.9119691 13.0707692,14.0849421 12.6953846,14.2332046 C12.4123077,14.3444015 11.9938462,14.4741313 11.2184615,14.5111969 C10.3753846,14.5482625 10.1292308,14.5606178 8,14.5606178 C5.87076923,14.5606178 5.61846154,14.5544402 4.78153846,14.5111969 C4.00615385,14.4741313 3.58153846,14.3444015 3.30461538,14.2332046 C2.93538462,14.0911197 2.66461538,13.9119691 2.38769231,13.6339768 C2.11076923,13.3559846 1.93846154,13.0903475 1.79076923,12.7135135 C1.68,12.4293436 1.55076923,12.0092664 1.51384615,11.230888 C1.47692308,10.384556 1.46461538,10.1312741 1.46461538,8 C1.46461538,5.86872587 1.47076923,5.60926641 1.51384615,4.76911197 C1.55076923,3.99073359 1.68,3.56447876 1.79076923,3.28648649 C1.93230769,2.91583012 2.11076923,2.64401544 2.38769231,2.36602317 C2.66461538,2.08803089 2.92923077,1.91505792 3.30461538,1.76679537 C3.58769231,1.65559846 4.00615385,1.52586873 4.78153846,1.48880309 C5.62461538,1.45173745 5.87692308,1.43938224 8,1.43938224 C10.1230769,1.43938224 10.3815385,1.44555985 11.2184615,1.48880309 C11.9938462,1.52586873 12.4184615,1.65559846 12.6953846,1.76679537 C13.0646154,1.90888031 13.3353846,2.08803089 13.6123077,2.36602317 C13.8892308,2.64401544 14.0615385,2.90965251 14.2092308,3.28648649 C14.32,3.57065637 14.4492308,3.99073359 14.4861538,4.76911197 C14.5230769,5.61544402 14.5353846,5.86872587 14.5353846,8 C14.5353846,10.1312741 14.5230769,10.3907336 14.4861538,11.230888 Z" id="XMLID_142_" fill="url(#radialGradient-1)"></path>
                <path d="M8,3.89189189 C5.74153846,3.89189189 3.90769231,5.73281853 3.90769231,8 C3.90769231,10.2671815 5.74153846,12.1081081 8,12.1081081 C10.2584615,12.1081081 12.0923077,10.2671815 12.0923077,8 C12.0923077,5.73281853 10.2584615,3.89189189 8,3.89189189 Z M8,10.6687259 C6.53538462,10.6687259 5.34153846,9.47644788 5.34153846,8 C5.34153846,6.52972973 6.52923077,5.33127413 8,5.33127413 C9.47076923,5.33127413 10.6584615,6.52355212 10.6584615,8 C10.6584615,9.47027027 9.46461538,10.6687259 8,10.6687259 Z" id="XMLID_145_" fill="url(#radialGradient-2)"></path>
                <ellipse id="XMLID_143_" fill="url(#radialGradient-3)" cx="12.2523077" cy="3.73127413" rx="1" ry="1"></ellipse>
            </g>
        </g>
    </g>
</svg>