<svg xmlns="http://www.w3.org/2000/svg" xmlns:xlink="http://www.w3.org/1999/xlink" width="130" height="23" viewBox="0 0 130 23">
    <defs>
        <path id="a" d="M0 .02h17.305v20.188H0z"/>
    </defs>
    <g fill="none" fill-rule="evenodd">
        <path fill="#FAA633" d="M25.078 4.353l-.002.002c-.8-.794-1.677-1.364-2.68-1.737a7.535 7.535 0 0 0-2.833-.457l-.068.001a6.443 6.443 0 0 0-1.736.262c-.821.246-1.777.716-2.831 1.613a10.91 10.91 0 0 0-.653.596c-.751.74-1.546 1.543-2.246 2.254-.507.509-1.06 1.068-1.604 1.626l.004.003c-.571.578-.544 1.542.062 2.156.589.595 1.506.633 2.082.102l.091-.092 1.556-1.579 1.978-1.992a7.78 7.78 0 0 0 .099-.102c.128-.121.26-.235.395-.344.87-.699 1.882-1.136 2.907-1.243.148-.016.297-.026.445-.028 1.136-.012 2.18.398 2.937 1.155.749.767 1.154 1.82 1.143 2.97-.013 1.346-.596 2.706-1.599 3.788a6.549 6.549 0 0 0-.1.1l-1.97 2-1.976 1.99a2.977 2.977 0 0 0-.1.102 6.333 6.333 0 0 1-.677.552c-.81.581-1.726.946-2.65 1.04h-.037a1.495 1.495 0 0 0-.986.442c-.613.62-.583 1.653.065 2.309a1.7 1.7 0 0 0 1.077.504h.01c.038.001.076 0 .111-.001.087-.003.181-.009.277-.016 1.07-.079 2.584-.433 4.367-2.02.154-.135.308-.277.465-.432.75-.742 1.547-1.544 2.245-2.256.704-.706 1.499-1.511 2.231-2.27 2.098-2.171 2.399-3.988 2.441-5.166.002-.034.002-.073.002-.112v-.068c.023-1.03-.125-1.968-.451-2.865a7.483 7.483 0 0 0-1.718-2.71h.002l-.038-.038-.037-.039"/>
        <g transform="translate(0 .178)">
            <mask id="b" fill="#fff">
                <use xlink:href="#a"/>
            </mask>
            <path fill="#002D62" d="M2.245 18.014l.002-.001c.798.793 1.676 1.363 2.68 1.735.887.33 1.814.48 2.833.457h.067c.039 0 .077 0 .112-.002.452-.016.999-.075 1.626-.26.82-.245 1.776-.717 2.83-1.613.214-.182.431-.377.653-.595.75-.741 1.547-1.544 2.246-2.255a213.72 213.72 0 0 0 1.603-1.626l-.004-.003c.573-.578.545-1.543-.06-2.156-.591-.596-1.508-.634-2.084-.102l-.09.092-1.556 1.579-1.978 1.992-.099.101c-.128.121-.26.236-.395.345-.87.699-1.884 1.135-2.908 1.242a4.643 4.643 0 0 1-.444.029c-1.138.011-2.179-.4-2.937-1.156-.748-.765-1.155-1.819-1.142-2.968.011-1.347.595-2.708 1.597-3.79l.1-.099 1.97-2 1.978-1.992c.036-.034.067-.068.098-.1.215-.204.444-.385.678-.553.81-.58 1.725-.945 2.65-1.039h-.002.039c.364-.022.715-.168.986-.442.612-.619.582-1.653-.065-2.308A1.7 1.7 0 0 0 12.15.02h-.009l-.111.001c-.088.004-.18.01-.277.017C10.682.116 9.17.47 7.387 2.057c-.153.135-.309.278-.465.433-.751.742-1.547 1.544-2.245 2.254-.705.708-1.498 1.512-2.231 2.271-2.097 2.172-2.4 3.99-2.441 5.167-.003.033-.003.072-.003.112v.068a7.754 7.754 0 0 0 .45 2.864 7.503 7.503 0 0 0 1.718 2.71v.001l.038.038.037.039" mask="url(#b)"/>
        </g>
        <path fill="#002D62" d="M44.879 10.35h-5.158c-.762 0-1.432-.506-1.432-1.081 0-.576.67-1.08 1.432-1.08h7.321c.5 0 .922-.427.922-.932a.939.939 0 0 0-.922-.932h-7.32c-1.797 0-3.26 1.32-3.26 2.944 0 1.613 1.463 2.926 3.26 2.926h5.157c.753 0 1.414.505 1.414 1.08 0 .584-.674 1.116-1.414 1.116h-7.477a.91.91 0 0 0-.903.914c0 .522.396.932.903.932h7.477c1.796 0 3.258-1.328 3.258-2.962 0-1.613-1.462-2.926-3.258-2.926M64.345 6.325h-3.599c-.801 0-1.581.35-2.235.997-.604-.638-1.396-.997-2.23-.997h-3.462c-1.691 0-3.12 1.484-3.12 3.241v5.756c0 .504.406.915.905.915.51 0 .938-.418.938-.915V9.566c0-.73.574-1.325 1.277-1.325h3.461c.726 0 1.293.583 1.293 1.325v5.756a.91.91 0 0 0 .923.915c.044 0 .126 0 .213-.034.441-.094.777-.467.777-.88V9.565c0-.73.565-1.325 1.26-1.325h3.6c.766 0 1.345.57 1.345 1.325v5.756c0 .513.404.915.921.915a.908.908 0 0 0 .922-.915V9.566c0-1.787-1.43-3.241-3.189-3.241M77.53 14.39h-5.383c-.694 0-1.259-.57-1.259-1.273 0-.711.573-1.29 1.276-1.29h6.624v1.29c0 .703-.565 1.274-1.258 1.274m-.018-8.066h-7.44a.909.909 0 0 0-.924.914c0 .513.405.914.923.914h7.44c.705 0 1.277.58 1.277 1.29V10h-6.624c-1.71 0-3.102 1.4-3.102 3.118 0 1.72 1.385 3.12 3.085 3.12h5.383c1.692 0 3.068-1.4 3.068-3.12V9.444c0-1.72-1.385-3.119-3.086-3.119M89.873 6.325h-4.655c-1.682 0-3.05 1.384-3.05 3.084v5.913c0 .504.405.915.903.915a.911.911 0 0 0 .905-.915V9.41a1.25 1.25 0 0 1 1.242-1.256h4.655c.694 0 1.26.564 1.26 1.256 0 .504.397.914.886.914.498 0 .904-.41.904-.914 0-1.7-1.368-3.084-3.05-3.084M104.42 10.157a.909.909 0 0 0-.922.914v4.234c0 .522.406.932.922.932a.928.928 0 0 0 .921-.932V11.07a.918.918 0 0 0-.921-.914M104.42 6.384a.918.918 0 0 0-.922.932v.612c0 .514.414.932.922.932.5 0 .921-.426.921-.932v-.612a.927.927 0 0 0-.921-.932M116.635 14.501l-5.538-3.279 5.344-3.164a.893.893 0 0 0 .416-.575.944.944 0 0 0-.1-.691.915.915 0 0 0-.794-.467.886.886 0 0 0-.453.125l-5.98 3.54V7.24a.92.92 0 0 0-.921-.915.91.91 0 0 0-.923.914v8.066c0 .522.406.932.923.932a.928.928 0 0 0 .922-.932v-2.85l6.172 3.654a.916.916 0 0 0 1.261-.334.927.927 0 0 0-.33-1.274M126.693 10.35h-5.157c-.762 0-1.432-.506-1.432-1.081 0-.576.67-1.08 1.432-1.08h7.32a.94.94 0 0 0 .922-.932.94.94 0 0 0-.923-.932h-7.32c-1.796 0-3.257 1.32-3.257 2.944 0 1.613 1.461 2.926 3.258 2.926h5.157c.753 0 1.414.505 1.414 1.08 0 .584-.674 1.116-1.414 1.116h-7.476a.91.91 0 0 0-.905.914c0 .522.398.932.905.932h7.476c1.797 0 3.258-1.328 3.258-2.962 0-1.613-1.46-2.926-3.258-2.926M100.173 14.373h-1.835a1.302 1.302 0 0 1-1.292-1.307v-4.91h2.476c.01 0 .019-.003.028-.003h.606a.909.909 0 0 0 .922-.914.918.918 0 0 0-.922-.931H95.2v.018h-.836c-.372 0-.675.41-.675.916 0 .505.303.915.675.915h.836v4.909c0 1.748 1.408 3.171 3.137 3.171h1.835c.517 0 .921-.41.921-.932a.927.927 0 0 0-.92-.932"/>
    </g>
</svg>
